<?xml version="1.0" encoding="UTF-8" standalone="no"?>
<!DOCTYPE svg PUBLIC "-//W3C//DTD SVG 1.1//EN"
 "http://www.w3.org/Graphics/SVG/1.1/DTD/svg11.dtd">
<!-- Generated by graphviz version 2.38.0 (20140413.2041)
 -->
<!-- Title: snakemake_dag Pages: 1 -->
<svg width="2815pt" height="404pt"
 viewBox="0.00 0.00 2815.00 404.00" xmlns="http://www.w3.org/2000/svg" xmlns:xlink="http://www.w3.org/1999/xlink">
<g id="graph0" class="graph" transform="scale(1 1) rotate(0) translate(4 400)">
<title>snakemake_dag</title>
<polygon fill="white" stroke="none" points="-4,4 -4,-400 2811,-400 2811,4 -4,4"/>
<!-- 0 -->
<g id="node1" class="node"><title>0</title>
<path fill="none" stroke="#59d856" stroke-width="2" stroke-dasharray="5,2" d="M2132,-36C2132,-36 2102,-36 2102,-36 2096,-36 2090,-30 2090,-24 2090,-24 2090,-12 2090,-12 2090,-6 2096,-0 2102,-0 2102,-0 2132,-0 2132,-0 2138,-0 2144,-6 2144,-12 2144,-12 2144,-24 2144,-24 2144,-30 2138,-36 2132,-36"/>
<text text-anchor="middle" x="2117" y="-15.5" font-family="sans" font-size="10.00">all</text>
</g>
<!-- 1 -->
<g id="node2" class="node"><title>1</title>
<path fill="none" stroke="#d6d856" stroke-width="2" stroke-dasharray="5,2" d="M1398.5,-108C1398.5,-108 1243.5,-108 1243.5,-108 1237.5,-108 1231.5,-102 1231.5,-96 1231.5,-96 1231.5,-84 1231.5,-84 1231.5,-78 1237.5,-72 1243.5,-72 1243.5,-72 1398.5,-72 1398.5,-72 1404.5,-72 1410.5,-78 1410.5,-84 1410.5,-84 1410.5,-96 1410.5,-96 1410.5,-102 1404.5,-108 1398.5,-108"/>
<text text-anchor="middle" x="1321" y="-87.5" font-family="sans" font-size="10.00">plot_heatmap_of_MotEvo_results</text>
</g>
<!-- 1&#45;&gt;0 -->
<g id="edge1" class="edge"><title>1&#45;&gt;0</title>
<path fill="none" stroke="grey" stroke-width="2" d="M1410.76,-81.1062C1584.42,-65.8347 1959.81,-32.8233 2079.52,-22.2963"/>
<polygon fill="grey" stroke="grey" stroke-width="2" points="2079.99,-25.7684 2089.64,-21.4058 2079.37,-18.7953 2079.99,-25.7684"/>
</g>
<!-- 2 -->
<g id="node3" class="node"><title>2</title>
<path fill="none" stroke="#56d89a" stroke-width="2" stroke-dasharray="5,2" d="M1753,-180C1753,-180 1617,-180 1617,-180 1611,-180 1605,-174 1605,-168 1605,-168 1605,-156 1605,-156 1605,-150 1611,-144 1617,-144 1617,-144 1753,-144 1753,-144 1759,-144 1765,-150 1765,-156 1765,-156 1765,-168 1765,-168 1765,-174 1759,-180 1753,-180"/>
<text text-anchor="middle" x="1685" y="-165" font-family="sans" font-size="10.00">plot_sequence_logos</text>
<text text-anchor="middle" x="1685" y="-154" font-family="sans" font-size="10.00">pwm_dir: motif_HNRNPF_829</text>
</g>
<!-- 2&#45;&gt;0 -->
<g id="edge2" class="edge"><title>2&#45;&gt;0</title>
<path fill="none" stroke="grey" stroke-width="2" d="M1683.3,-143.775C1682.34,-123.469 1684.24,-90.1911 1704,-72 1758.29,-22.0204 1988.67,-18.0503 2079.74,-18.4916"/>
<polygon fill="grey" stroke="grey" stroke-width="2" points="2079.86,-21.9924 2089.88,-18.5622 2079.91,-14.9926 2079.86,-21.9924"/>
</g>
<!-- 3 -->
<g id="node4" class="node"><title>3</title>
<path fill="none" stroke="#56d89a" stroke-width="2" stroke-dasharray="5,2" d="M1861,-108C1861,-108 1725,-108 1725,-108 1719,-108 1713,-102 1713,-96 1713,-96 1713,-84 1713,-84 1713,-78 1719,-72 1725,-72 1725,-72 1861,-72 1861,-72 1867,-72 1873,-78 1873,-84 1873,-84 1873,-96 1873,-96 1873,-102 1867,-108 1861,-108"/>
<text text-anchor="middle" x="1793" y="-93" font-family="sans" font-size="10.00">plot_sequence_logos</text>
<text text-anchor="middle" x="1793" y="-82" font-family="sans" font-size="10.00">pwm_dir: motif_HNRNPF_825</text>
</g>
<!-- 3&#45;&gt;0 -->
<g id="edge3" class="edge"><title>3&#45;&gt;0</title>
<path fill="none" stroke="grey" stroke-width="2" d="M1871.85,-71.9656C1938.09,-57.6542 2029.78,-37.8446 2080.16,-26.9594"/>
<polygon fill="grey" stroke="grey" stroke-width="2" points="2080.93,-30.3744 2089.96,-24.8414 2079.45,-23.5322 2080.93,-30.3744"/>
</g>
<!-- 4 -->
<g id="node5" class="node"><title>4</title>
<path fill="none" stroke="#56d89a" stroke-width="2" stroke-dasharray="5,2" d="M1969,-180C1969,-180 1833,-180 1833,-180 1827,-180 1821,-174 1821,-168 1821,-168 1821,-156 1821,-156 1821,-150 1827,-144 1833,-144 1833,-144 1969,-144 1969,-144 1975,-144 1981,-150 1981,-156 1981,-156 1981,-168 1981,-168 1981,-174 1975,-180 1969,-180"/>
<text text-anchor="middle" x="1901" y="-165" font-family="sans" font-size="10.00">plot_sequence_logos</text>
<text text-anchor="middle" x="1901" y="-154" font-family="sans" font-size="10.00">pwm_dir: motif_HNRNPF_821</text>
</g>
<!-- 4&#45;&gt;0 -->
<g id="edge4" class="edge"><title>4&#45;&gt;0</title>
<path fill="none" stroke="grey" stroke-width="2" d="M1899.72,-143.861C1899.23,-123.952 1901.62,-91.3696 1920,-72 1961.53,-28.2344 2035.01,-19.246 2079.54,-18.1308"/>
<polygon fill="grey" stroke="grey" stroke-width="2" points="2079.71,-21.6291 2089.66,-18.0005 2079.62,-14.6297 2079.71,-21.6291"/>
</g>
<!-- 5 -->
<g id="node6" class="node"><title>5</title>
<path fill="none" stroke="#56d89a" stroke-width="2" stroke-dasharray="5,2" d="M2077,-108C2077,-108 1941,-108 1941,-108 1935,-108 1929,-102 1929,-96 1929,-96 1929,-84 1929,-84 1929,-78 1935,-72 1941,-72 1941,-72 2077,-72 2077,-72 2083,-72 2089,-78 2089,-84 2089,-84 2089,-96 2089,-96 2089,-102 2083,-108 2077,-108"/>
<text text-anchor="middle" x="2009" y="-93" font-family="sans" font-size="10.00">plot_sequence_logos</text>
<text text-anchor="middle" x="2009" y="-82" font-family="sans" font-size="10.00">pwm_dir: motif_HNRNPF_827</text>
</g>
<!-- 5&#45;&gt;0 -->
<g id="edge5" class="edge"><title>5&#45;&gt;0</title>
<path fill="none" stroke="grey" stroke-width="2" d="M2035.42,-71.8761C2049.41,-62.8083 2066.78,-51.5523 2081.89,-41.7592"/>
<polygon fill="grey" stroke="grey" stroke-width="2" points="2083.99,-44.5658 2090.48,-36.1898 2080.18,-38.6917 2083.99,-44.5658"/>
</g>
<!-- 6 -->
<g id="node7" class="node"><title>6</title>
<path fill="none" stroke="#56d89a" stroke-width="2" stroke-dasharray="5,2" d="M2185,-180C2185,-180 2049,-180 2049,-180 2043,-180 2037,-174 2037,-168 2037,-168 2037,-156 2037,-156 2037,-150 2043,-144 2049,-144 2049,-144 2185,-144 2185,-144 2191,-144 2197,-150 2197,-156 2197,-156 2197,-168 2197,-168 2197,-174 2191,-180 2185,-180"/>
<text text-anchor="middle" x="2117" y="-165" font-family="sans" font-size="10.00">plot_sequence_logos</text>
<text text-anchor="middle" x="2117" y="-154" font-family="sans" font-size="10.00">pwm_dir: motif_HNRNPF_820</text>
</g>
<!-- 6&#45;&gt;0 -->
<g id="edge6" class="edge"><title>6&#45;&gt;0</title>
<path fill="none" stroke="grey" stroke-width="2" d="M2117,-143.871C2117,-119.67 2117,-75.2108 2117,-46.3932"/>
<polygon fill="grey" stroke="grey" stroke-width="2" points="2120.5,-46.1892 2117,-36.1893 2113.5,-46.1893 2120.5,-46.1892"/>
</g>
<!-- 7 -->
<g id="node8" class="node"><title>7</title>
<path fill="none" stroke="#56d89a" stroke-width="2" stroke-dasharray="5,2" d="M2293,-108C2293,-108 2157,-108 2157,-108 2151,-108 2145,-102 2145,-96 2145,-96 2145,-84 2145,-84 2145,-78 2151,-72 2157,-72 2157,-72 2293,-72 2293,-72 2299,-72 2305,-78 2305,-84 2305,-84 2305,-96 2305,-96 2305,-102 2299,-108 2293,-108"/>
<text text-anchor="middle" x="2225" y="-93" font-family="sans" font-size="10.00">plot_sequence_logos</text>
<text text-anchor="middle" x="2225" y="-82" font-family="sans" font-size="10.00">pwm_dir: motif_HNRNPF_822</text>
</g>
<!-- 7&#45;&gt;0 -->
<g id="edge7" class="edge"><title>7&#45;&gt;0</title>
<path fill="none" stroke="grey" stroke-width="2" d="M2198.58,-71.8761C2184.59,-62.8083 2167.22,-51.5523 2152.11,-41.7592"/>
<polygon fill="grey" stroke="grey" stroke-width="2" points="2153.82,-38.6917 2143.52,-36.1898 2150.01,-44.5658 2153.82,-38.6917"/>
</g>
<!-- 8 -->
<g id="node9" class="node"><title>8</title>
<path fill="none" stroke="#56d89a" stroke-width="2" stroke-dasharray="5,2" d="M2401,-180C2401,-180 2265,-180 2265,-180 2259,-180 2253,-174 2253,-168 2253,-168 2253,-156 2253,-156 2253,-150 2259,-144 2265,-144 2265,-144 2401,-144 2401,-144 2407,-144 2413,-150 2413,-156 2413,-156 2413,-168 2413,-168 2413,-174 2407,-180 2401,-180"/>
<text text-anchor="middle" x="2333" y="-165" font-family="sans" font-size="10.00">plot_sequence_logos</text>
<text text-anchor="middle" x="2333" y="-154" font-family="sans" font-size="10.00">pwm_dir: motif_HNRNPF_824</text>
</g>
<!-- 8&#45;&gt;0 -->
<g id="edge8" class="edge"><title>8&#45;&gt;0</title>
<path fill="none" stroke="grey" stroke-width="2" d="M2334.28,-143.861C2334.77,-123.952 2332.38,-91.3696 2314,-72 2272.47,-28.2344 2198.99,-19.246 2154.46,-18.1308"/>
<polygon fill="grey" stroke="grey" stroke-width="2" points="2154.38,-14.6297 2144.34,-18.0005 2154.29,-21.6291 2154.38,-14.6297"/>
</g>
<!-- 9 -->
<g id="node10" class="node"><title>9</title>
<path fill="none" stroke="#56d89a" stroke-width="2" stroke-dasharray="5,2" d="M2509,-108C2509,-108 2373,-108 2373,-108 2367,-108 2361,-102 2361,-96 2361,-96 2361,-84 2361,-84 2361,-78 2367,-72 2373,-72 2373,-72 2509,-72 2509,-72 2515,-72 2521,-78 2521,-84 2521,-84 2521,-96 2521,-96 2521,-102 2515,-108 2509,-108"/>
<text text-anchor="middle" x="2441" y="-93" font-family="sans" font-size="10.00">plot_sequence_logos</text>
<text text-anchor="middle" x="2441" y="-82" font-family="sans" font-size="10.00">pwm_dir: motif_HNRNPF_826</text>
</g>
<!-- 9&#45;&gt;0 -->
<g id="edge9" class="edge"><title>9&#45;&gt;0</title>
<path fill="none" stroke="grey" stroke-width="2" d="M2362.15,-71.9656C2295.91,-57.6542 2204.22,-37.8446 2153.84,-26.9594"/>
<polygon fill="grey" stroke="grey" stroke-width="2" points="2154.55,-23.5322 2144.04,-24.8414 2153.07,-30.3744 2154.55,-23.5322"/>
</g>
<!-- 10 -->
<g id="node11" class="node"><title>10</title>
<path fill="none" stroke="#56d89a" stroke-width="2" stroke-dasharray="5,2" d="M2617,-324C2617,-324 2481,-324 2481,-324 2475,-324 2469,-318 2469,-312 2469,-312 2469,-300 2469,-300 2469,-294 2475,-288 2481,-288 2481,-288 2617,-288 2617,-288 2623,-288 2629,-294 2629,-300 2629,-300 2629,-312 2629,-312 2629,-318 2623,-324 2617,-324"/>
<text text-anchor="middle" x="2549" y="-309" font-family="sans" font-size="10.00">plot_sequence_logos</text>
<text text-anchor="middle" x="2549" y="-298" font-family="sans" font-size="10.00">pwm_dir: motif_HNRNPF_823</text>
</g>
<!-- 10&#45;&gt;0 -->
<g id="edge10" class="edge"><title>10&#45;&gt;0</title>
<path fill="none" stroke="grey" stroke-width="2" d="M2553.96,-287.794C2565.18,-244.836 2587.31,-132.03 2530,-72 2504.23,-45.0067 2251.29,-27.0747 2154.45,-21.1501"/>
<polygon fill="grey" stroke="grey" stroke-width="2" points="2154.43,-17.6426 2144.24,-20.5346 2154.01,-24.63 2154.43,-17.6426"/>
</g>
<!-- 11 -->
<g id="node12" class="node"><title>11</title>
<path fill="none" stroke="#56d89a" stroke-width="2" stroke-dasharray="5,2" d="M2795,-324C2795,-324 2659,-324 2659,-324 2653,-324 2647,-318 2647,-312 2647,-312 2647,-300 2647,-300 2647,-294 2653,-288 2659,-288 2659,-288 2795,-288 2795,-288 2801,-288 2807,-294 2807,-300 2807,-300 2807,-312 2807,-312 2807,-318 2801,-324 2795,-324"/>
<text text-anchor="middle" x="2727" y="-309" font-family="sans" font-size="10.00">plot_sequence_logos</text>
<text text-anchor="middle" x="2727" y="-298" font-family="sans" font-size="10.00">pwm_dir: motif_HNRNPF_828</text>
</g>
<!-- 11&#45;&gt;0 -->
<g id="edge11" class="edge"><title>11&#45;&gt;0</title>
<path fill="none" stroke="grey" stroke-width="2" d="M2720.19,-287.776C2701.59,-243.246 2645.24,-124.156 2556,-72 2488.03,-32.276 2247.2,-22.1842 2154.11,-19.7414"/>
<polygon fill="grey" stroke="grey" stroke-width="2" points="2154.11,-16.2403 2144.02,-19.4918 2153.93,-23.2382 2154.11,-16.2403"/>
</g>
<!-- 12 -->
<g id="node13" class="node"><title>12</title>
<path fill="none" stroke="#569ad8" stroke-width="2" stroke-dasharray="5,2" d="M1027,-180C1027,-180 913,-180 913,-180 907,-180 901,-174 901,-168 901,-168 901,-156 901,-156 901,-150 907,-144 913,-144 913,-144 1027,-144 1027,-144 1033,-144 1039,-150 1039,-156 1039,-156 1039,-168 1039,-168 1039,-174 1033,-180 1027,-180"/>
<text text-anchor="middle" x="970" y="-159.5" font-family="sans" font-size="10.00">combine_MotEvo_results</text>
</g>
<!-- 12&#45;&gt;1 -->
<g id="edge12" class="edge"><title>12&#45;&gt;1</title>
<path fill="none" stroke="grey" stroke-width="2" d="M1039.35,-147.17C1092.61,-136.549 1166.76,-121.761 1225.61,-110.024"/>
<polygon fill="grey" stroke="grey" stroke-width="2" points="1226.54,-113.407 1235.66,-108.019 1225.17,-106.543 1226.54,-113.407"/>
</g>
<!-- 13 -->
<g id="node14" class="node"><title>13</title>
<path fill="none" stroke="#56d8d8" stroke-width="2" stroke-dasharray="5,2" d="M2116,-396C2116,-396 1974,-396 1974,-396 1968,-396 1962,-390 1962,-384 1962,-384 1962,-372 1962,-372 1962,-366 1968,-360 1974,-360 1974,-360 2116,-360 2116,-360 2122,-360 2128,-366 2128,-372 2128,-372 2128,-384 2128,-384 2128,-390 2122,-396 2116,-396"/>
<text text-anchor="middle" x="2045" y="-381" font-family="sans" font-size="10.00">create_results_directory</text>
<text text-anchor="middle" x="2045" y="-370" font-family="sans" font-size="10.00">outdir: tests/integration/output</text>
</g>
<!-- 13&#45;&gt;2 -->
<g id="edge13" class="edge"><title>13&#45;&gt;2</title>
<path fill="none" stroke="grey" stroke-width="2" d="M1961.87,-366.189C1905.07,-357.291 1836.22,-343.047 1814,-324 1774.78,-290.374 1804.23,-255.558 1771,-216 1760.64,-203.662 1746.63,-193.354 1732.94,-185.208"/>
<polygon fill="grey" stroke="grey" stroke-width="2" points="1734.45,-182.043 1724.03,-180.167 1731.01,-188.136 1734.45,-182.043"/>
</g>
<!-- 13&#45;&gt;3 -->
<g id="edge14" class="edge"><title>13&#45;&gt;3</title>
<path fill="none" stroke="grey" stroke-width="2" d="M2012.76,-359.851C1961.05,-330.505 1860.5,-265.457 1812,-180 1801.24,-161.048 1796.56,-136.682 1794.53,-118.238"/>
<polygon fill="grey" stroke="grey" stroke-width="2" points="1798.01,-117.791 1793.62,-108.148 1791.03,-118.423 1798.01,-117.791"/>
</g>
<!-- 13&#45;&gt;4 -->
<g id="edge15" class="edge"><title>13&#45;&gt;4</title>
<path fill="none" stroke="grey" stroke-width="2" d="M2026.8,-359.752C2016.81,-349.8 2004.55,-336.762 1995,-324 1961.64,-279.421 1930.67,-222.057 1913.94,-189.218"/>
<polygon fill="grey" stroke="grey" stroke-width="2" points="1917.04,-187.598 1909.41,-180.247 1910.79,-190.751 1917.04,-187.598"/>
</g>
<!-- 13&#45;&gt;5 -->
<g id="edge16" class="edge"><title>13&#45;&gt;5</title>
<path fill="none" stroke="grey" stroke-width="2" d="M2042.86,-359.966C2036.84,-312.192 2019.78,-176.623 2012.43,-118.266"/>
<polygon fill="grey" stroke="grey" stroke-width="2" points="2015.9,-117.791 2011.18,-108.306 2008.95,-118.665 2015.9,-117.791"/>
</g>
<!-- 13&#45;&gt;6 -->
<g id="edge17" class="edge"><title>13&#45;&gt;6</title>
<path fill="none" stroke="grey" stroke-width="2" d="M2050.77,-359.849C2063.28,-322.675 2092.96,-234.439 2107.98,-189.82"/>
<polygon fill="grey" stroke="grey" stroke-width="2" points="2111.33,-190.827 2111.2,-180.232 2104.7,-188.594 2111.33,-190.827"/>
</g>
<!-- 13&#45;&gt;7 -->
<g id="edge18" class="edge"><title>13&#45;&gt;7</title>
<path fill="none" stroke="grey" stroke-width="2" d="M2064.07,-359.806C2098.21,-327.902 2169.57,-255.85 2206,-180 2215.38,-160.475 2220.16,-136.338 2222.58,-118.129"/>
<polygon fill="grey" stroke="grey" stroke-width="2" points="2226.06,-118.512 2223.75,-108.172 2219.11,-117.696 2226.06,-118.512"/>
</g>
<!-- 13&#45;&gt;8 -->
<g id="edge19" class="edge"><title>13&#45;&gt;8</title>
<path fill="none" stroke="grey" stroke-width="2" d="M2128.22,-368.629C2165.13,-361.506 2207.28,-348.337 2239,-324 2284.34,-289.209 2311.85,-225.819 2324.56,-189.832"/>
<polygon fill="grey" stroke="grey" stroke-width="2" points="2327.99,-190.624 2327.9,-180.03 2321.36,-188.37 2327.99,-190.624"/>
</g>
<!-- 13&#45;&gt;9 -->
<g id="edge20" class="edge"><title>13&#45;&gt;9</title>
<path fill="none" stroke="grey" stroke-width="2" d="M2128.11,-368.064C2172.27,-360.753 2226.29,-347.585 2270,-324 2351.89,-279.806 2376.46,-261.153 2422,-180 2432.66,-160.996 2437.35,-136.634 2439.41,-118.204"/>
<polygon fill="grey" stroke="grey" stroke-width="2" points="2442.91,-118.404 2440.34,-108.124 2435.93,-117.76 2442.91,-118.404"/>
</g>
<!-- 13&#45;&gt;10 -->
<g id="edge21" class="edge"><title>13&#45;&gt;10</title>
<path fill="none" stroke="grey" stroke-width="2" d="M2128.02,-367.512C2210.97,-357.739 2342.05,-341.503 2455,-324 2456.27,-323.804 2457.54,-323.604 2458.83,-323.4"/>
<polygon fill="grey" stroke="grey" stroke-width="2" points="2459.48,-326.84 2468.79,-321.784 2458.36,-319.93 2459.48,-326.84"/>
</g>
<!-- 13&#45;&gt;11 -->
<g id="edge22" class="edge"><title>13&#45;&gt;11</title>
<path fill="none" stroke="grey" stroke-width="2" d="M2128.28,-372.181C2241.28,-365.057 2449.58,-349.848 2636.52,-324.133"/>
<polygon fill="grey" stroke="grey" stroke-width="2" points="2637.11,-327.585 2646.53,-322.743 2636.14,-320.652 2637.11,-327.585"/>
</g>
<!-- 24 -->
<g id="node25" class="node"><title>24</title>
<path fill="none" stroke="#d89556" stroke-width="2" stroke-dasharray="5,2" d="M946.5,-324C946.5,-324 813.5,-324 813.5,-324 807.5,-324 801.5,-318 801.5,-312 801.5,-312 801.5,-300 801.5,-300 801.5,-294 807.5,-288 813.5,-288 813.5,-288 946.5,-288 946.5,-288 952.5,-288 958.5,-294 958.5,-300 958.5,-300 958.5,-312 958.5,-312 958.5,-318 952.5,-324 946.5,-324"/>
<text text-anchor="middle" x="880" y="-303.5" font-family="sans" font-size="10.00">prepare_MotEvo_parameters</text>
</g>
<!-- 13&#45;&gt;24 -->
<g id="edge53" class="edge"><title>13&#45;&gt;24</title>
<path fill="none" stroke="grey" stroke-width="2" d="M1961.9,-376.911C1782.29,-375.849 1344.48,-368.587 968.58,-323.951"/>
<polygon fill="grey" stroke="grey" stroke-width="2" points="968.941,-320.47 958.595,-322.755 968.108,-327.42 968.941,-320.47"/>
</g>
<!-- 25 -->
<g id="node26" class="node"><title>25</title>
<path fill="none" stroke="#97d856" stroke-width="2" stroke-dasharray="5,2" d="M1131,-324C1131,-324 989,-324 989,-324 983,-324 977,-318 977,-312 977,-312 977,-300 977,-300 977,-294 983,-288 989,-288 989,-288 1131,-288 1131,-288 1137,-288 1143,-294 1143,-300 1143,-300 1143,-312 1143,-312 1143,-318 1137,-324 1131,-324"/>
<text text-anchor="middle" x="1060" y="-303.5" font-family="sans" font-size="10.00">prepare_sequence_for_MotEvo</text>
</g>
<!-- 13&#45;&gt;25 -->
<g id="edge54" class="edge"><title>13&#45;&gt;25</title>
<path fill="none" stroke="grey" stroke-width="2" d="M1961.87,-371.092C1779.38,-358.123 1344.76,-327.237 1153.3,-313.63"/>
<polygon fill="grey" stroke="grey" stroke-width="2" points="1153.48,-310.134 1143.26,-312.917 1152.98,-317.117 1153.48,-310.134"/>
</g>
<!-- 14 -->
<g id="node15" class="node"><title>14</title>
<path fill="none" stroke="#d85656" stroke-width="2" stroke-dasharray="5,2" d="M860,-252C860,-252 724,-252 724,-252 718,-252 712,-246 712,-240 712,-240 712,-228 712,-228 712,-222 718,-216 724,-216 724,-216 860,-216 860,-216 866,-216 872,-222 872,-228 872,-228 872,-240 872,-240 872,-246 866,-252 860,-252"/>
<text text-anchor="middle" x="792" y="-237" font-family="sans" font-size="10.00">run_MotEvo_analysis</text>
<text text-anchor="middle" x="792" y="-226" font-family="sans" font-size="10.00">pwm_dir: motif_HNRNPF_829</text>
</g>
<!-- 14&#45;&gt;12 -->
<g id="edge23" class="edge"><title>14&#45;&gt;12</title>
<path fill="none" stroke="grey" stroke-width="2" d="M835.544,-215.876C860.202,-206.179 891.223,-193.98 917.254,-183.743"/>
<polygon fill="grey" stroke="grey" stroke-width="2" points="918.572,-186.985 926.598,-180.068 916.011,-180.471 918.572,-186.985"/>
</g>
<!-- 15 -->
<g id="node16" class="node"><title>15</title>
<path fill="none" stroke="#d85656" stroke-width="2" stroke-dasharray="5,2" d="M1038,-252C1038,-252 902,-252 902,-252 896,-252 890,-246 890,-240 890,-240 890,-228 890,-228 890,-222 896,-216 902,-216 902,-216 1038,-216 1038,-216 1044,-216 1050,-222 1050,-228 1050,-228 1050,-240 1050,-240 1050,-246 1044,-252 1038,-252"/>
<text text-anchor="middle" x="970" y="-237" font-family="sans" font-size="10.00">run_MotEvo_analysis</text>
<text text-anchor="middle" x="970" y="-226" font-family="sans" font-size="10.00">pwm_dir: motif_HNRNPF_825</text>
</g>
<!-- 15&#45;&gt;12 -->
<g id="edge24" class="edge"><title>15&#45;&gt;12</title>
<path fill="none" stroke="grey" stroke-width="2" d="M970,-215.697C970,-207.983 970,-198.712 970,-190.112"/>
<polygon fill="grey" stroke="grey" stroke-width="2" points="973.5,-190.104 970,-180.104 966.5,-190.104 973.5,-190.104"/>
</g>
<!-- 16 -->
<g id="node17" class="node"><title>16</title>
<path fill="none" stroke="#d85656" stroke-width="2" stroke-dasharray="5,2" d="M1216,-252C1216,-252 1080,-252 1080,-252 1074,-252 1068,-246 1068,-240 1068,-240 1068,-228 1068,-228 1068,-222 1074,-216 1080,-216 1080,-216 1216,-216 1216,-216 1222,-216 1228,-222 1228,-228 1228,-228 1228,-240 1228,-240 1228,-246 1222,-252 1216,-252"/>
<text text-anchor="middle" x="1148" y="-237" font-family="sans" font-size="10.00">run_MotEvo_analysis</text>
<text text-anchor="middle" x="1148" y="-226" font-family="sans" font-size="10.00">pwm_dir: motif_HNRNPF_821</text>
</g>
<!-- 16&#45;&gt;12 -->
<g id="edge25" class="edge"><title>16&#45;&gt;12</title>
<path fill="none" stroke="grey" stroke-width="2" d="M1104.46,-215.876C1079.8,-206.179 1048.78,-193.98 1022.75,-183.743"/>
<polygon fill="grey" stroke="grey" stroke-width="2" points="1023.99,-180.471 1013.4,-180.068 1021.43,-186.985 1023.99,-180.471"/>
</g>
<!-- 17 -->
<g id="node18" class="node"><title>17</title>
<path fill="none" stroke="#d85656" stroke-width="2" stroke-dasharray="5,2" d="M1394,-252C1394,-252 1258,-252 1258,-252 1252,-252 1246,-246 1246,-240 1246,-240 1246,-228 1246,-228 1246,-222 1252,-216 1258,-216 1258,-216 1394,-216 1394,-216 1400,-216 1406,-222 1406,-228 1406,-228 1406,-240 1406,-240 1406,-246 1400,-252 1394,-252"/>
<text text-anchor="middle" x="1326" y="-237" font-family="sans" font-size="10.00">run_MotEvo_analysis</text>
<text text-anchor="middle" x="1326" y="-226" font-family="sans" font-size="10.00">pwm_dir: motif_HNRNPF_827</text>
</g>
<!-- 17&#45;&gt;12 -->
<g id="edge26" class="edge"><title>17&#45;&gt;12</title>
<path fill="none" stroke="grey" stroke-width="2" d="M1245.66,-217.203C1186.92,-205.653 1107.63,-190.063 1049.17,-178.567"/>
<polygon fill="grey" stroke="grey" stroke-width="2" points="1049.73,-175.109 1039.24,-176.614 1048.38,-181.978 1049.73,-175.109"/>
</g>
<!-- 18 -->
<g id="node19" class="node"><title>18</title>
<path fill="none" stroke="#d85656" stroke-width="2" stroke-dasharray="5,2" d="M1572,-252C1572,-252 1436,-252 1436,-252 1430,-252 1424,-246 1424,-240 1424,-240 1424,-228 1424,-228 1424,-222 1430,-216 1436,-216 1436,-216 1572,-216 1572,-216 1578,-216 1584,-222 1584,-228 1584,-228 1584,-240 1584,-240 1584,-246 1578,-252 1572,-252"/>
<text text-anchor="middle" x="1504" y="-237" font-family="sans" font-size="10.00">run_MotEvo_analysis</text>
<text text-anchor="middle" x="1504" y="-226" font-family="sans" font-size="10.00">pwm_dir: motif_HNRNPF_820</text>
</g>
<!-- 18&#45;&gt;12 -->
<g id="edge27" class="edge"><title>18&#45;&gt;12</title>
<path fill="none" stroke="grey" stroke-width="2" d="M1423.99,-217.443C1420.96,-216.941 1417.95,-216.457 1415,-216 1287.48,-196.252 1138.4,-179.846 1049.23,-170.741"/>
<polygon fill="grey" stroke="grey" stroke-width="2" points="1049.5,-167.25 1039.2,-169.721 1048.79,-174.214 1049.5,-167.25"/>
</g>
<!-- 19 -->
<g id="node20" class="node"><title>19</title>
<path fill="none" stroke="#d85656" stroke-width="2" stroke-dasharray="5,2" d="M1750,-252C1750,-252 1614,-252 1614,-252 1608,-252 1602,-246 1602,-240 1602,-240 1602,-228 1602,-228 1602,-222 1608,-216 1614,-216 1614,-216 1750,-216 1750,-216 1756,-216 1762,-222 1762,-228 1762,-228 1762,-240 1762,-240 1762,-246 1756,-252 1750,-252"/>
<text text-anchor="middle" x="1682" y="-237" font-family="sans" font-size="10.00">run_MotEvo_analysis</text>
<text text-anchor="middle" x="1682" y="-226" font-family="sans" font-size="10.00">pwm_dir: motif_HNRNPF_822</text>
</g>
<!-- 19&#45;&gt;12 -->
<g id="edge28" class="edge"><title>19&#45;&gt;12</title>
<path fill="none" stroke="grey" stroke-width="2" d="M1601.53,-217.242C1598.66,-216.802 1595.81,-216.386 1593,-216 1398.65,-189.245 1168.2,-173.851 1049.49,-167.112"/>
<polygon fill="grey" stroke="grey" stroke-width="2" points="1049.58,-163.612 1039.4,-166.545 1049.19,-170.601 1049.58,-163.612"/>
</g>
<!-- 20 -->
<g id="node21" class="node"><title>20</title>
<path fill="none" stroke="#d85656" stroke-width="2" stroke-dasharray="5,2" d="M148,-252C148,-252 12,-252 12,-252 6,-252 0,-246 0,-240 0,-240 0,-228 0,-228 0,-222 6,-216 12,-216 12,-216 148,-216 148,-216 154,-216 160,-222 160,-228 160,-228 160,-240 160,-240 160,-246 154,-252 148,-252"/>
<text text-anchor="middle" x="80" y="-237" font-family="sans" font-size="10.00">run_MotEvo_analysis</text>
<text text-anchor="middle" x="80" y="-226" font-family="sans" font-size="10.00">pwm_dir: motif_HNRNPF_824</text>
</g>
<!-- 20&#45;&gt;12 -->
<g id="edge29" class="edge"><title>20&#45;&gt;12</title>
<path fill="none" stroke="grey" stroke-width="2" d="M160.459,-217.173C163.338,-216.753 166.191,-216.36 169,-216 432.076,-182.3 746.671,-169.415 890.804,-165.022"/>
<polygon fill="grey" stroke="grey" stroke-width="2" points="890.994,-168.518 900.884,-164.72 890.784,-161.521 890.994,-168.518"/>
</g>
<!-- 21 -->
<g id="node22" class="node"><title>21</title>
<path fill="none" stroke="#d85656" stroke-width="2" stroke-dasharray="5,2" d="M326,-252C326,-252 190,-252 190,-252 184,-252 178,-246 178,-240 178,-240 178,-228 178,-228 178,-222 184,-216 190,-216 190,-216 326,-216 326,-216 332,-216 338,-222 338,-228 338,-228 338,-240 338,-240 338,-246 332,-252 326,-252"/>
<text text-anchor="middle" x="258" y="-237" font-family="sans" font-size="10.00">run_MotEvo_analysis</text>
<text text-anchor="middle" x="258" y="-226" font-family="sans" font-size="10.00">pwm_dir: motif_HNRNPF_826</text>
</g>
<!-- 21&#45;&gt;12 -->
<g id="edge30" class="edge"><title>21&#45;&gt;12</title>
<path fill="none" stroke="grey" stroke-width="2" d="M338.468,-217.242C341.344,-216.802 344.195,-216.386 347,-216 541.353,-189.245 771.798,-173.851 890.506,-167.112"/>
<polygon fill="grey" stroke="grey" stroke-width="2" points="890.809,-170.601 900.597,-166.545 890.416,-163.612 890.809,-170.601"/>
</g>
<!-- 22 -->
<g id="node23" class="node"><title>22</title>
<path fill="none" stroke="#d85656" stroke-width="2" stroke-dasharray="5,2" d="M504,-252C504,-252 368,-252 368,-252 362,-252 356,-246 356,-240 356,-240 356,-228 356,-228 356,-222 362,-216 368,-216 368,-216 504,-216 504,-216 510,-216 516,-222 516,-228 516,-228 516,-240 516,-240 516,-246 510,-252 504,-252"/>
<text text-anchor="middle" x="436" y="-237" font-family="sans" font-size="10.00">run_MotEvo_analysis</text>
<text text-anchor="middle" x="436" y="-226" font-family="sans" font-size="10.00">pwm_dir: motif_HNRNPF_823</text>
</g>
<!-- 22&#45;&gt;12 -->
<g id="edge31" class="edge"><title>22&#45;&gt;12</title>
<path fill="none" stroke="grey" stroke-width="2" d="M516.008,-217.443C519.041,-216.941 522.046,-216.457 525,-216 652.522,-196.252 801.595,-179.846 890.766,-170.741"/>
<polygon fill="grey" stroke="grey" stroke-width="2" points="891.21,-174.214 900.805,-169.721 890.502,-167.25 891.21,-174.214"/>
</g>
<!-- 23 -->
<g id="node24" class="node"><title>23</title>
<path fill="none" stroke="#d85656" stroke-width="2" stroke-dasharray="5,2" d="M682,-252C682,-252 546,-252 546,-252 540,-252 534,-246 534,-240 534,-240 534,-228 534,-228 534,-222 540,-216 546,-216 546,-216 682,-216 682,-216 688,-216 694,-222 694,-228 694,-228 694,-240 694,-240 694,-246 688,-252 682,-252"/>
<text text-anchor="middle" x="614" y="-237" font-family="sans" font-size="10.00">run_MotEvo_analysis</text>
<text text-anchor="middle" x="614" y="-226" font-family="sans" font-size="10.00">pwm_dir: motif_HNRNPF_828</text>
</g>
<!-- 23&#45;&gt;12 -->
<g id="edge32" class="edge"><title>23&#45;&gt;12</title>
<path fill="none" stroke="grey" stroke-width="2" d="M694.337,-217.203C753.077,-205.653 832.368,-190.063 890.832,-178.567"/>
<polygon fill="grey" stroke="grey" stroke-width="2" points="891.625,-181.978 900.762,-176.614 890.274,-175.109 891.625,-181.978"/>
</g>
<!-- 24&#45;&gt;14 -->
<g id="edge33" class="edge"><title>24&#45;&gt;14</title>
<path fill="none" stroke="grey" stroke-width="2" d="M858.247,-287.697C847.164,-278.881 833.526,-268.032 821.51,-258.474"/>
<polygon fill="grey" stroke="grey" stroke-width="2" points="823.507,-255.59 813.503,-252.104 819.15,-261.069 823.507,-255.59"/>
</g>
<!-- 24&#45;&gt;15 -->
<g id="edge35" class="edge"><title>24&#45;&gt;15</title>
<path fill="none" stroke="grey" stroke-width="2" d="M902.247,-287.697C913.582,-278.881 927.53,-268.032 939.819,-258.474"/>
<polygon fill="grey" stroke="grey" stroke-width="2" points="942.264,-261.007 948.009,-252.104 937.966,-255.481 942.264,-261.007"/>
</g>
<!-- 24&#45;&gt;16 -->
<g id="edge37" class="edge"><title>24&#45;&gt;16</title>
<path fill="none" stroke="grey" stroke-width="2" d="M945.217,-287.966C983.721,-277.909 1032.62,-265.136 1072.75,-254.654"/>
<polygon fill="grey" stroke="grey" stroke-width="2" points="1073.7,-258.024 1082.49,-252.111 1071.93,-251.252 1073.7,-258.024"/>
</g>
<!-- 24&#45;&gt;17 -->
<g id="edge39" class="edge"><title>24&#45;&gt;17</title>
<path fill="none" stroke="grey" stroke-width="2" d="M958.642,-289.574C961.8,-289.029 964.929,-288.502 968,-288 1083.9,-269.065 1116.25,-271.192 1236.05,-252.1"/>
<polygon fill="grey" stroke="grey" stroke-width="2" points="1236.67,-255.547 1245.98,-250.502 1235.55,-248.636 1236.67,-255.547"/>
</g>
<!-- 24&#45;&gt;18 -->
<g id="edge41" class="edge"><title>24&#45;&gt;18</title>
<path fill="none" stroke="grey" stroke-width="2" d="M958.611,-289.368C961.778,-288.879 964.917,-288.421 968,-288 1162.2,-261.504 1215.72,-278.162 1413.4,-252.13"/>
<polygon fill="grey" stroke="grey" stroke-width="2" points="1414.09,-255.569 1423.53,-250.775 1413.16,-248.631 1414.09,-255.569"/>
</g>
<!-- 24&#45;&gt;19 -->
<g id="edge43" class="edge"><title>24&#45;&gt;19</title>
<path fill="none" stroke="grey" stroke-width="2" d="M958.599,-289.278C961.769,-288.814 964.912,-288.385 968,-288 1240.73,-253.957 1315.06,-285.388 1591.21,-252.121"/>
<polygon fill="grey" stroke="grey" stroke-width="2" points="1592.04,-255.546 1601.54,-250.858 1591.19,-248.598 1592.04,-255.546"/>
</g>
<!-- 24&#45;&gt;20 -->
<g id="edge45" class="edge"><title>24&#45;&gt;20</title>
<path fill="none" stroke="grey" stroke-width="2" d="M801.317,-302.076C671.743,-296.613 405.232,-282.648 170.555,-252.122"/>
<polygon fill="grey" stroke="grey" stroke-width="2" points="170.834,-248.629 160.463,-250.796 169.922,-255.569 170.834,-248.629"/>
</g>
<!-- 24&#45;&gt;21 -->
<g id="edge47" class="edge"><title>24&#45;&gt;21</title>
<path fill="none" stroke="grey" stroke-width="2" d="M801.162,-299.382C698.938,-291.6 514.954,-275.903 348.407,-252.137"/>
<polygon fill="grey" stroke="grey" stroke-width="2" points="348.872,-248.667 338.476,-250.707 347.875,-255.596 348.872,-248.667"/>
</g>
<!-- 24&#45;&gt;22 -->
<g id="edge49" class="edge"><title>24&#45;&gt;22</title>
<path fill="none" stroke="grey" stroke-width="2" d="M801.246,-294.176C731.532,-284.38 626.776,-269.138 526.071,-252.147"/>
<polygon fill="grey" stroke="grey" stroke-width="2" points="526.47,-248.665 516.026,-250.444 525.3,-255.567 526.47,-248.665"/>
</g>
<!-- 24&#45;&gt;23 -->
<g id="edge51" class="edge"><title>24&#45;&gt;23</title>
<path fill="none" stroke="grey" stroke-width="2" d="M815.269,-287.966C777.134,-277.93 728.724,-265.19 688.939,-254.721"/>
<polygon fill="grey" stroke="grey" stroke-width="2" points="689.583,-251.271 679.021,-252.111 687.801,-258.041 689.583,-251.271"/>
</g>
<!-- 25&#45;&gt;14 -->
<g id="edge34" class="edge"><title>25&#45;&gt;14</title>
<path fill="none" stroke="grey" stroke-width="2" d="M994.783,-287.966C956.279,-277.909 907.38,-265.136 867.247,-254.654"/>
<polygon fill="grey" stroke="grey" stroke-width="2" points="868.07,-251.252 857.51,-252.111 866.301,-258.024 868.07,-251.252"/>
</g>
<!-- 25&#45;&gt;15 -->
<g id="edge36" class="edge"><title>25&#45;&gt;15</title>
<path fill="none" stroke="grey" stroke-width="2" d="M1037.75,-287.697C1026.42,-278.881 1012.47,-268.032 1000.18,-258.474"/>
<polygon fill="grey" stroke="grey" stroke-width="2" points="1002.03,-255.481 991.991,-252.104 997.736,-261.007 1002.03,-255.481"/>
</g>
<!-- 25&#45;&gt;16 -->
<g id="edge38" class="edge"><title>25&#45;&gt;16</title>
<path fill="none" stroke="grey" stroke-width="2" d="M1081.75,-287.697C1092.84,-278.881 1106.47,-268.032 1118.49,-258.474"/>
<polygon fill="grey" stroke="grey" stroke-width="2" points="1120.85,-261.069 1126.5,-252.104 1116.49,-255.59 1120.85,-261.069"/>
</g>
<!-- 25&#45;&gt;17 -->
<g id="edge40" class="edge"><title>25&#45;&gt;17</title>
<path fill="none" stroke="grey" stroke-width="2" d="M1124.73,-287.966C1162.87,-277.93 1211.28,-265.19 1251.06,-254.721"/>
<polygon fill="grey" stroke="grey" stroke-width="2" points="1252.2,-258.041 1260.98,-252.111 1250.42,-251.271 1252.2,-258.041"/>
</g>
<!-- 25&#45;&gt;18 -->
<g id="edge42" class="edge"><title>25&#45;&gt;18</title>
<path fill="none" stroke="grey" stroke-width="2" d="M1143.36,-293.528C1213,-283.719 1315.18,-268.808 1413.82,-252.165"/>
<polygon fill="grey" stroke="grey" stroke-width="2" points="1414.7,-255.567 1423.97,-250.444 1413.53,-248.665 1414.7,-255.567"/>
</g>
<!-- 25&#45;&gt;19 -->
<g id="edge44" class="edge"><title>25&#45;&gt;19</title>
<path fill="none" stroke="grey" stroke-width="2" d="M1143.37,-299.036C1246.36,-291.145 1427.11,-275.595 1591.24,-252.187"/>
<polygon fill="grey" stroke="grey" stroke-width="2" points="1592.12,-255.596 1601.52,-250.707 1591.13,-248.667 1592.12,-255.596"/>
</g>
<!-- 25&#45;&gt;20 -->
<g id="edge46" class="edge"><title>25&#45;&gt;20</title>
<path fill="none" stroke="grey" stroke-width="2" d="M976.93,-289.238C973.581,-288.786 970.262,-288.37 967,-288 617.507,-248.359 523.345,-292.576 170.433,-252.064"/>
<polygon fill="grey" stroke="grey" stroke-width="2" points="170.787,-248.582 160.45,-250.903 169.979,-255.535 170.787,-248.582"/>
</g>
<!-- 25&#45;&gt;21 -->
<g id="edge48" class="edge"><title>25&#45;&gt;21</title>
<path fill="none" stroke="grey" stroke-width="2" d="M976.924,-289.292C973.577,-288.825 970.259,-288.391 967,-288 696.291,-255.523 622.71,-285.222 348.707,-252.113"/>
<polygon fill="grey" stroke="grey" stroke-width="2" points="348.807,-248.599 338.456,-250.856 347.955,-255.547 348.807,-248.599"/>
</g>
<!-- 25&#45;&gt;22 -->
<g id="edge50" class="edge"><title>25&#45;&gt;22</title>
<path fill="none" stroke="grey" stroke-width="2" d="M976.912,-289.389C973.568,-288.895 970.255,-288.429 967,-288 774.839,-262.675 722.044,-277.999 526.494,-252.118"/>
<polygon fill="grey" stroke="grey" stroke-width="2" points="526.843,-248.633 516.467,-250.771 525.912,-255.571 526.843,-248.633"/>
</g>
<!-- 25&#45;&gt;23 -->
<g id="edge52" class="edge"><title>25&#45;&gt;23</title>
<path fill="none" stroke="grey" stroke-width="2" d="M976.879,-289.613C973.545,-289.057 970.242,-288.517 967,-288 853.256,-269.858 821.582,-271.034 704.131,-252.135"/>
<polygon fill="grey" stroke="grey" stroke-width="2" points="704.45,-248.641 694.018,-250.492 703.327,-255.55 704.45,-248.641"/>
</g>
</g>
</svg>
