<?xml version="1.0" encoding="UTF-8" standalone="no"?>
<!DOCTYPE svg PUBLIC "-//W3C//DTD SVG 1.1//EN"
 "http://www.w3.org/Graphics/SVG/1.1/DTD/svg11.dtd">
<!-- Generated by graphviz version 2.38.0 (20140413.2041)
 -->
<!-- Title: snakemake_dag Pages: 1 -->
<svg width="2710pt" height="404pt"
 viewBox="0.00 0.00 2710.00 404.00" xmlns="http://www.w3.org/2000/svg" xmlns:xlink="http://www.w3.org/1999/xlink">
<g id="graph0" class="graph" transform="scale(1 1) rotate(0) translate(4 400)">
<title>snakemake_dag</title>
<polygon fill="white" stroke="none" points="-4,4 -4,-400 2706,-400 2706,4 -4,4"/>
<!-- 0 -->
<g id="node1" class="node"><title>0</title>
<path fill="none" stroke="#569ad8" stroke-width="2" d="M2097,-36C2097,-36 2067,-36 2067,-36 2061,-36 2055,-30 2055,-24 2055,-24 2055,-12 2055,-12 2055,-6 2061,-0 2067,-0 2067,-0 2097,-0 2097,-0 2103,-0 2109,-6 2109,-12 2109,-12 2109,-24 2109,-24 2109,-30 2103,-36 2097,-36"/>
<text text-anchor="middle" x="2082" y="-15.5" font-family="sans" font-size="10.00">all</text>
</g>
<!-- 1 -->
<g id="node2" class="node"><title>1</title>
<path fill="none" stroke="#97d856" stroke-width="2" d="M2159.5,-108C2159.5,-108 2004.5,-108 2004.5,-108 1998.5,-108 1992.5,-102 1992.5,-96 1992.5,-96 1992.5,-84 1992.5,-84 1992.5,-78 1998.5,-72 2004.5,-72 2004.5,-72 2159.5,-72 2159.5,-72 2165.5,-72 2171.5,-78 2171.5,-84 2171.5,-84 2171.5,-96 2171.5,-96 2171.5,-102 2165.5,-108 2159.5,-108"/>
<text text-anchor="middle" x="2082" y="-87.5" font-family="sans" font-size="10.00">plot_heatmap_of_MotEvo_results</text>
</g>
<!-- 1&#45;&gt;0 -->
<g id="edge1" class="edge"><title>1&#45;&gt;0</title>
<path fill="none" stroke="grey" stroke-width="2" d="M2082,-71.6966C2082,-63.9827 2082,-54.7125 2082,-46.1124"/>
<polygon fill="grey" stroke="grey" stroke-width="2" points="2085.5,-46.1043 2082,-36.1043 2078.5,-46.1044 2085.5,-46.1043"/>
</g>
<!-- 2 -->
<g id="node3" class="node"><title>2</title>
<path fill="none" stroke="#59d856" stroke-width="2" d="M1027,-180C1027,-180 913,-180 913,-180 907,-180 901,-174 901,-168 901,-168 901,-156 901,-156 901,-150 907,-144 913,-144 913,-144 1027,-144 1027,-144 1033,-144 1039,-150 1039,-156 1039,-156 1039,-168 1039,-168 1039,-174 1033,-180 1027,-180"/>
<text text-anchor="middle" x="970" y="-159.5" font-family="sans" font-size="10.00">combine_MotEvo_results</text>
</g>
<!-- 2&#45;&gt;1 -->
<g id="edge2" class="edge"><title>2&#45;&gt;1</title>
<path fill="none" stroke="grey" stroke-width="2" d="M1039.14,-156.648C1229.22,-144.682 1760.26,-111.253 1982.36,-97.2723"/>
<polygon fill="grey" stroke="grey" stroke-width="2" points="1982.62,-100.763 1992.38,-96.6416 1982.18,-93.7768 1982.62,-100.763"/>
</g>
<!-- 3 -->
<g id="node4" class="node"><title>3</title>
<path fill="none" stroke="#d85656" stroke-width="2" d="M1438,-180C1438,-180 1302,-180 1302,-180 1296,-180 1290,-174 1290,-168 1290,-168 1290,-156 1290,-156 1290,-150 1296,-144 1302,-144 1302,-144 1438,-144 1438,-144 1444,-144 1450,-150 1450,-156 1450,-156 1450,-168 1450,-168 1450,-174 1444,-180 1438,-180"/>
<text text-anchor="middle" x="1370" y="-165" font-family="sans" font-size="10.00">plot_sequence_logos</text>
<text text-anchor="middle" x="1370" y="-154" font-family="sans" font-size="10.00">pwm_dir: motif_HNRNPF_825</text>
</g>
<!-- 3&#45;&gt;1 -->
<g id="edge3" class="edge"><title>3&#45;&gt;1</title>
<path fill="none" stroke="grey" stroke-width="2" d="M1450.47,-145.242C1453.34,-144.802 1456.19,-144.386 1459,-144 1642.83,-118.694 1858.94,-103.552 1982.26,-96.2836"/>
<polygon fill="grey" stroke="grey" stroke-width="2" points="1982.66,-99.7664 1992.44,-95.6892 1982.25,-92.7783 1982.66,-99.7664"/>
</g>
<!-- 4 -->
<g id="node5" class="node"><title>4</title>
<path fill="none" stroke="#d85656" stroke-width="2" d="M1616,-180C1616,-180 1480,-180 1480,-180 1474,-180 1468,-174 1468,-168 1468,-168 1468,-156 1468,-156 1468,-150 1474,-144 1480,-144 1480,-144 1616,-144 1616,-144 1622,-144 1628,-150 1628,-156 1628,-156 1628,-168 1628,-168 1628,-174 1622,-180 1616,-180"/>
<text text-anchor="middle" x="1548" y="-165" font-family="sans" font-size="10.00">plot_sequence_logos</text>
<text text-anchor="middle" x="1548" y="-154" font-family="sans" font-size="10.00">pwm_dir: motif_HNRNPF_829</text>
</g>
<!-- 4&#45;&gt;1 -->
<g id="edge4" class="edge"><title>4&#45;&gt;1</title>
<path fill="none" stroke="grey" stroke-width="2" d="M1628.01,-145.443C1631.04,-144.941 1634.05,-144.457 1637,-144 1755.2,-125.695 1891.92,-110.262 1982.29,-100.852"/>
<polygon fill="grey" stroke="grey" stroke-width="2" points="1982.67,-104.332 1992.25,-99.8197 1981.94,-97.3692 1982.67,-104.332"/>
</g>
<!-- 5 -->
<g id="node6" class="node"><title>5</title>
<path fill="none" stroke="#d85656" stroke-width="2" d="M1794,-180C1794,-180 1658,-180 1658,-180 1652,-180 1646,-174 1646,-168 1646,-168 1646,-156 1646,-156 1646,-150 1652,-144 1658,-144 1658,-144 1794,-144 1794,-144 1800,-144 1806,-150 1806,-156 1806,-156 1806,-168 1806,-168 1806,-174 1800,-180 1794,-180"/>
<text text-anchor="middle" x="1726" y="-165" font-family="sans" font-size="10.00">plot_sequence_logos</text>
<text text-anchor="middle" x="1726" y="-154" font-family="sans" font-size="10.00">pwm_dir: motif_HNRNPF_826</text>
</g>
<!-- 5&#45;&gt;1 -->
<g id="edge5" class="edge"><title>5&#45;&gt;1</title>
<path fill="none" stroke="grey" stroke-width="2" d="M1806.34,-145.203C1859.44,-134.761 1929.34,-121.017 1985.47,-109.981"/>
<polygon fill="grey" stroke="grey" stroke-width="2" points="1986.28,-113.388 1995.42,-108.024 1984.93,-106.519 1986.28,-113.388"/>
</g>
<!-- 6 -->
<g id="node7" class="node"><title>6</title>
<path fill="none" stroke="#d85656" stroke-width="2" d="M1972,-180C1972,-180 1836,-180 1836,-180 1830,-180 1824,-174 1824,-168 1824,-168 1824,-156 1824,-156 1824,-150 1830,-144 1836,-144 1836,-144 1972,-144 1972,-144 1978,-144 1984,-150 1984,-156 1984,-156 1984,-168 1984,-168 1984,-174 1978,-180 1972,-180"/>
<text text-anchor="middle" x="1904" y="-165" font-family="sans" font-size="10.00">plot_sequence_logos</text>
<text text-anchor="middle" x="1904" y="-154" font-family="sans" font-size="10.00">pwm_dir: motif_HNRNPF_821</text>
</g>
<!-- 6&#45;&gt;1 -->
<g id="edge6" class="edge"><title>6&#45;&gt;1</title>
<path fill="none" stroke="grey" stroke-width="2" d="M1947.54,-143.876C1972.2,-134.179 2003.22,-121.98 2029.25,-111.743"/>
<polygon fill="grey" stroke="grey" stroke-width="2" points="2030.57,-114.985 2038.6,-108.068 2028.01,-108.471 2030.57,-114.985"/>
</g>
<!-- 7 -->
<g id="node8" class="node"><title>7</title>
<path fill="none" stroke="#d85656" stroke-width="2" d="M2150,-180C2150,-180 2014,-180 2014,-180 2008,-180 2002,-174 2002,-168 2002,-168 2002,-156 2002,-156 2002,-150 2008,-144 2014,-144 2014,-144 2150,-144 2150,-144 2156,-144 2162,-150 2162,-156 2162,-156 2162,-168 2162,-168 2162,-174 2156,-180 2150,-180"/>
<text text-anchor="middle" x="2082" y="-165" font-family="sans" font-size="10.00">plot_sequence_logos</text>
<text text-anchor="middle" x="2082" y="-154" font-family="sans" font-size="10.00">pwm_dir: motif_HNRNPF_827</text>
</g>
<!-- 7&#45;&gt;1 -->
<g id="edge7" class="edge"><title>7&#45;&gt;1</title>
<path fill="none" stroke="grey" stroke-width="2" d="M2082,-143.697C2082,-135.983 2082,-126.712 2082,-118.112"/>
<polygon fill="grey" stroke="grey" stroke-width="2" points="2085.5,-118.104 2082,-108.104 2078.5,-118.104 2085.5,-118.104"/>
</g>
<!-- 8 -->
<g id="node9" class="node"><title>8</title>
<path fill="none" stroke="#d85656" stroke-width="2" d="M2328,-180C2328,-180 2192,-180 2192,-180 2186,-180 2180,-174 2180,-168 2180,-168 2180,-156 2180,-156 2180,-150 2186,-144 2192,-144 2192,-144 2328,-144 2328,-144 2334,-144 2340,-150 2340,-156 2340,-156 2340,-168 2340,-168 2340,-174 2334,-180 2328,-180"/>
<text text-anchor="middle" x="2260" y="-165" font-family="sans" font-size="10.00">plot_sequence_logos</text>
<text text-anchor="middle" x="2260" y="-154" font-family="sans" font-size="10.00">pwm_dir: motif_HNRNPF_823</text>
</g>
<!-- 8&#45;&gt;1 -->
<g id="edge8" class="edge"><title>8&#45;&gt;1</title>
<path fill="none" stroke="grey" stroke-width="2" d="M2216.46,-143.876C2191.8,-134.179 2160.78,-121.98 2134.75,-111.743"/>
<polygon fill="grey" stroke="grey" stroke-width="2" points="2135.99,-108.471 2125.4,-108.068 2133.43,-114.985 2135.99,-108.471"/>
</g>
<!-- 9 -->
<g id="node10" class="node"><title>9</title>
<path fill="none" stroke="#d85656" stroke-width="2" d="M2156,-324C2156,-324 2020,-324 2020,-324 2014,-324 2008,-318 2008,-312 2008,-312 2008,-300 2008,-300 2008,-294 2014,-288 2020,-288 2020,-288 2156,-288 2156,-288 2162,-288 2168,-294 2168,-300 2168,-300 2168,-312 2168,-312 2168,-318 2162,-324 2156,-324"/>
<text text-anchor="middle" x="2088" y="-309" font-family="sans" font-size="10.00">plot_sequence_logos</text>
<text text-anchor="middle" x="2088" y="-298" font-family="sans" font-size="10.00">pwm_dir: motif_HNRNPF_828</text>
</g>
<!-- 9&#45;&gt;1 -->
<g id="edge9" class="edge"><title>9&#45;&gt;1</title>
<path fill="none" stroke="grey" stroke-width="2" d="M2168.02,-288.371C2264.86,-264.665 2408.04,-215.907 2349,-144 2327.79,-118.161 2248.46,-104.694 2181.74,-97.8164"/>
<polygon fill="grey" stroke="grey" stroke-width="2" points="2181.87,-94.3123 2171.58,-96.8086 2181.18,-101.278 2181.87,-94.3123"/>
</g>
<!-- 10 -->
<g id="node11" class="node"><title>10</title>
<path fill="none" stroke="#d85656" stroke-width="2" d="M2334,-324C2334,-324 2198,-324 2198,-324 2192,-324 2186,-318 2186,-312 2186,-312 2186,-300 2186,-300 2186,-294 2192,-288 2198,-288 2198,-288 2334,-288 2334,-288 2340,-288 2346,-294 2346,-300 2346,-300 2346,-312 2346,-312 2346,-318 2340,-324 2334,-324"/>
<text text-anchor="middle" x="2266" y="-309" font-family="sans" font-size="10.00">plot_sequence_logos</text>
<text text-anchor="middle" x="2266" y="-298" font-family="sans" font-size="10.00">pwm_dir: motif_HNRNPF_822</text>
</g>
<!-- 10&#45;&gt;1 -->
<g id="edge10" class="edge"><title>10&#45;&gt;1</title>
<path fill="none" stroke="grey" stroke-width="2" d="M2291.58,-287.861C2333.98,-257.394 2410.35,-192.456 2370,-144 2346.15,-115.363 2255.17,-102.144 2181.76,-96.0751"/>
<polygon fill="grey" stroke="grey" stroke-width="2" points="2181.77,-92.5653 2171.53,-95.2654 2181.22,-99.5434 2181.77,-92.5653"/>
</g>
<!-- 11 -->
<g id="node12" class="node"><title>11</title>
<path fill="none" stroke="#d85656" stroke-width="2" d="M2512,-324C2512,-324 2376,-324 2376,-324 2370,-324 2364,-318 2364,-312 2364,-312 2364,-300 2364,-300 2364,-294 2370,-288 2376,-288 2376,-288 2512,-288 2512,-288 2518,-288 2524,-294 2524,-300 2524,-300 2524,-312 2524,-312 2524,-318 2518,-324 2512,-324"/>
<text text-anchor="middle" x="2444" y="-309" font-family="sans" font-size="10.00">plot_sequence_logos</text>
<text text-anchor="middle" x="2444" y="-298" font-family="sans" font-size="10.00">pwm_dir: motif_HNRNPF_820</text>
</g>
<!-- 11&#45;&gt;1 -->
<g id="edge11" class="edge"><title>11&#45;&gt;1</title>
<path fill="none" stroke="grey" stroke-width="2" d="M2443.67,-287.795C2442.04,-254.492 2433.42,-181.229 2390,-144 2359.25,-117.636 2259.61,-103.996 2181.9,-97.2066"/>
<polygon fill="grey" stroke="grey" stroke-width="2" points="2181.83,-93.6885 2171.57,-96.333 2181.24,-100.664 2181.83,-93.6885"/>
</g>
<!-- 12 -->
<g id="node13" class="node"><title>12</title>
<path fill="none" stroke="#d85656" stroke-width="2" d="M2690,-324C2690,-324 2554,-324 2554,-324 2548,-324 2542,-318 2542,-312 2542,-312 2542,-300 2542,-300 2542,-294 2548,-288 2554,-288 2554,-288 2690,-288 2690,-288 2696,-288 2702,-294 2702,-300 2702,-300 2702,-312 2702,-312 2702,-318 2696,-324 2690,-324"/>
<text text-anchor="middle" x="2622" y="-309" font-family="sans" font-size="10.00">plot_sequence_logos</text>
<text text-anchor="middle" x="2622" y="-298" font-family="sans" font-size="10.00">pwm_dir: motif_HNRNPF_824</text>
</g>
<!-- 12&#45;&gt;1 -->
<g id="edge12" class="edge"><title>12&#45;&gt;1</title>
<path fill="none" stroke="grey" stroke-width="2" d="M2606.5,-287.938C2574.78,-254.216 2498.61,-179.254 2418,-144 2342.97,-111.183 2250.62,-98.3681 2181.75,-93.5144"/>
<polygon fill="grey" stroke="grey" stroke-width="2" points="2181.97,-90.0215 2171.76,-92.8546 2181.51,-97.0063 2181.97,-90.0215"/>
</g>
<!-- 13 -->
<g id="node14" class="node"><title>13</title>
<path fill="none" stroke="#56d8d8" stroke-width="2" d="M860,-252C860,-252 724,-252 724,-252 718,-252 712,-246 712,-240 712,-240 712,-228 712,-228 712,-222 718,-216 724,-216 724,-216 860,-216 860,-216 866,-216 872,-222 872,-228 872,-228 872,-240 872,-240 872,-246 866,-252 860,-252"/>
<text text-anchor="middle" x="792" y="-237" font-family="sans" font-size="10.00">run_MotEvo_analysis</text>
<text text-anchor="middle" x="792" y="-226" font-family="sans" font-size="10.00">pwm_dir: motif_HNRNPF_825</text>
</g>
<!-- 13&#45;&gt;2 -->
<g id="edge13" class="edge"><title>13&#45;&gt;2</title>
<path fill="none" stroke="grey" stroke-width="2" d="M835.544,-215.876C860.202,-206.179 891.223,-193.98 917.254,-183.743"/>
<polygon fill="grey" stroke="grey" stroke-width="2" points="918.572,-186.985 926.598,-180.068 916.011,-180.471 918.572,-186.985"/>
</g>
<!-- 14 -->
<g id="node15" class="node"><title>14</title>
<path fill="none" stroke="#56d8d8" stroke-width="2" d="M1038,-252C1038,-252 902,-252 902,-252 896,-252 890,-246 890,-240 890,-240 890,-228 890,-228 890,-222 896,-216 902,-216 902,-216 1038,-216 1038,-216 1044,-216 1050,-222 1050,-228 1050,-228 1050,-240 1050,-240 1050,-246 1044,-252 1038,-252"/>
<text text-anchor="middle" x="970" y="-237" font-family="sans" font-size="10.00">run_MotEvo_analysis</text>
<text text-anchor="middle" x="970" y="-226" font-family="sans" font-size="10.00">pwm_dir: motif_HNRNPF_829</text>
</g>
<!-- 14&#45;&gt;2 -->
<g id="edge14" class="edge"><title>14&#45;&gt;2</title>
<path fill="none" stroke="grey" stroke-width="2" d="M970,-215.697C970,-207.983 970,-198.712 970,-190.112"/>
<polygon fill="grey" stroke="grey" stroke-width="2" points="973.5,-190.104 970,-180.104 966.5,-190.104 973.5,-190.104"/>
</g>
<!-- 15 -->
<g id="node16" class="node"><title>15</title>
<path fill="none" stroke="#56d8d8" stroke-width="2" d="M1216,-252C1216,-252 1080,-252 1080,-252 1074,-252 1068,-246 1068,-240 1068,-240 1068,-228 1068,-228 1068,-222 1074,-216 1080,-216 1080,-216 1216,-216 1216,-216 1222,-216 1228,-222 1228,-228 1228,-228 1228,-240 1228,-240 1228,-246 1222,-252 1216,-252"/>
<text text-anchor="middle" x="1148" y="-237" font-family="sans" font-size="10.00">run_MotEvo_analysis</text>
<text text-anchor="middle" x="1148" y="-226" font-family="sans" font-size="10.00">pwm_dir: motif_HNRNPF_826</text>
</g>
<!-- 15&#45;&gt;2 -->
<g id="edge15" class="edge"><title>15&#45;&gt;2</title>
<path fill="none" stroke="grey" stroke-width="2" d="M1104.46,-215.876C1079.8,-206.179 1048.78,-193.98 1022.75,-183.743"/>
<polygon fill="grey" stroke="grey" stroke-width="2" points="1023.99,-180.471 1013.4,-180.068 1021.43,-186.985 1023.99,-180.471"/>
</g>
<!-- 16 -->
<g id="node17" class="node"><title>16</title>
<path fill="none" stroke="#56d8d8" stroke-width="2" d="M1394,-252C1394,-252 1258,-252 1258,-252 1252,-252 1246,-246 1246,-240 1246,-240 1246,-228 1246,-228 1246,-222 1252,-216 1258,-216 1258,-216 1394,-216 1394,-216 1400,-216 1406,-222 1406,-228 1406,-228 1406,-240 1406,-240 1406,-246 1400,-252 1394,-252"/>
<text text-anchor="middle" x="1326" y="-237" font-family="sans" font-size="10.00">run_MotEvo_analysis</text>
<text text-anchor="middle" x="1326" y="-226" font-family="sans" font-size="10.00">pwm_dir: motif_HNRNPF_821</text>
</g>
<!-- 16&#45;&gt;2 -->
<g id="edge16" class="edge"><title>16&#45;&gt;2</title>
<path fill="none" stroke="grey" stroke-width="2" d="M1245.66,-217.203C1186.92,-205.653 1107.63,-190.063 1049.17,-178.567"/>
<polygon fill="grey" stroke="grey" stroke-width="2" points="1049.73,-175.109 1039.24,-176.614 1048.38,-181.978 1049.73,-175.109"/>
</g>
<!-- 17 -->
<g id="node18" class="node"><title>17</title>
<path fill="none" stroke="#56d8d8" stroke-width="2" d="M1572,-252C1572,-252 1436,-252 1436,-252 1430,-252 1424,-246 1424,-240 1424,-240 1424,-228 1424,-228 1424,-222 1430,-216 1436,-216 1436,-216 1572,-216 1572,-216 1578,-216 1584,-222 1584,-228 1584,-228 1584,-240 1584,-240 1584,-246 1578,-252 1572,-252"/>
<text text-anchor="middle" x="1504" y="-237" font-family="sans" font-size="10.00">run_MotEvo_analysis</text>
<text text-anchor="middle" x="1504" y="-226" font-family="sans" font-size="10.00">pwm_dir: motif_HNRNPF_827</text>
</g>
<!-- 17&#45;&gt;2 -->
<g id="edge17" class="edge"><title>17&#45;&gt;2</title>
<path fill="none" stroke="grey" stroke-width="2" d="M1423.99,-217.443C1420.96,-216.941 1417.95,-216.457 1415,-216 1287.48,-196.252 1138.4,-179.846 1049.23,-170.741"/>
<polygon fill="grey" stroke="grey" stroke-width="2" points="1049.5,-167.25 1039.2,-169.721 1048.79,-174.214 1049.5,-167.25"/>
</g>
<!-- 18 -->
<g id="node19" class="node"><title>18</title>
<path fill="none" stroke="#56d8d8" stroke-width="2" d="M1750,-252C1750,-252 1614,-252 1614,-252 1608,-252 1602,-246 1602,-240 1602,-240 1602,-228 1602,-228 1602,-222 1608,-216 1614,-216 1614,-216 1750,-216 1750,-216 1756,-216 1762,-222 1762,-228 1762,-228 1762,-240 1762,-240 1762,-246 1756,-252 1750,-252"/>
<text text-anchor="middle" x="1682" y="-237" font-family="sans" font-size="10.00">run_MotEvo_analysis</text>
<text text-anchor="middle" x="1682" y="-226" font-family="sans" font-size="10.00">pwm_dir: motif_HNRNPF_823</text>
</g>
<!-- 18&#45;&gt;2 -->
<g id="edge18" class="edge"><title>18&#45;&gt;2</title>
<path fill="none" stroke="grey" stroke-width="2" d="M1601.53,-217.242C1598.66,-216.802 1595.81,-216.386 1593,-216 1398.65,-189.245 1168.2,-173.851 1049.49,-167.112"/>
<polygon fill="grey" stroke="grey" stroke-width="2" points="1049.58,-163.612 1039.4,-166.545 1049.19,-170.601 1049.58,-163.612"/>
</g>
<!-- 19 -->
<g id="node20" class="node"><title>19</title>
<path fill="none" stroke="#56d8d8" stroke-width="2" d="M148,-252C148,-252 12,-252 12,-252 6,-252 0,-246 0,-240 0,-240 0,-228 0,-228 0,-222 6,-216 12,-216 12,-216 148,-216 148,-216 154,-216 160,-222 160,-228 160,-228 160,-240 160,-240 160,-246 154,-252 148,-252"/>
<text text-anchor="middle" x="80" y="-237" font-family="sans" font-size="10.00">run_MotEvo_analysis</text>
<text text-anchor="middle" x="80" y="-226" font-family="sans" font-size="10.00">pwm_dir: motif_HNRNPF_828</text>
</g>
<!-- 19&#45;&gt;2 -->
<g id="edge19" class="edge"><title>19&#45;&gt;2</title>
<path fill="none" stroke="grey" stroke-width="2" d="M160.459,-217.173C163.338,-216.753 166.191,-216.36 169,-216 432.076,-182.3 746.671,-169.415 890.804,-165.022"/>
<polygon fill="grey" stroke="grey" stroke-width="2" points="890.994,-168.518 900.884,-164.72 890.784,-161.521 890.994,-168.518"/>
</g>
<!-- 20 -->
<g id="node21" class="node"><title>20</title>
<path fill="none" stroke="#56d8d8" stroke-width="2" d="M326,-252C326,-252 190,-252 190,-252 184,-252 178,-246 178,-240 178,-240 178,-228 178,-228 178,-222 184,-216 190,-216 190,-216 326,-216 326,-216 332,-216 338,-222 338,-228 338,-228 338,-240 338,-240 338,-246 332,-252 326,-252"/>
<text text-anchor="middle" x="258" y="-237" font-family="sans" font-size="10.00">run_MotEvo_analysis</text>
<text text-anchor="middle" x="258" y="-226" font-family="sans" font-size="10.00">pwm_dir: motif_HNRNPF_822</text>
</g>
<!-- 20&#45;&gt;2 -->
<g id="edge20" class="edge"><title>20&#45;&gt;2</title>
<path fill="none" stroke="grey" stroke-width="2" d="M338.468,-217.242C341.344,-216.802 344.195,-216.386 347,-216 541.353,-189.245 771.798,-173.851 890.506,-167.112"/>
<polygon fill="grey" stroke="grey" stroke-width="2" points="890.809,-170.601 900.597,-166.545 890.416,-163.612 890.809,-170.601"/>
</g>
<!-- 21 -->
<g id="node22" class="node"><title>21</title>
<path fill="none" stroke="#56d8d8" stroke-width="2" d="M504,-252C504,-252 368,-252 368,-252 362,-252 356,-246 356,-240 356,-240 356,-228 356,-228 356,-222 362,-216 368,-216 368,-216 504,-216 504,-216 510,-216 516,-222 516,-228 516,-228 516,-240 516,-240 516,-246 510,-252 504,-252"/>
<text text-anchor="middle" x="436" y="-237" font-family="sans" font-size="10.00">run_MotEvo_analysis</text>
<text text-anchor="middle" x="436" y="-226" font-family="sans" font-size="10.00">pwm_dir: motif_HNRNPF_820</text>
</g>
<!-- 21&#45;&gt;2 -->
<g id="edge21" class="edge"><title>21&#45;&gt;2</title>
<path fill="none" stroke="grey" stroke-width="2" d="M516.008,-217.443C519.041,-216.941 522.046,-216.457 525,-216 652.522,-196.252 801.595,-179.846 890.766,-170.741"/>
<polygon fill="grey" stroke="grey" stroke-width="2" points="891.21,-174.214 900.805,-169.721 890.502,-167.25 891.21,-174.214"/>
</g>
<!-- 22 -->
<g id="node23" class="node"><title>22</title>
<path fill="none" stroke="#56d8d8" stroke-width="2" d="M682,-252C682,-252 546,-252 546,-252 540,-252 534,-246 534,-240 534,-240 534,-228 534,-228 534,-222 540,-216 546,-216 546,-216 682,-216 682,-216 688,-216 694,-222 694,-228 694,-228 694,-240 694,-240 694,-246 688,-252 682,-252"/>
<text text-anchor="middle" x="614" y="-237" font-family="sans" font-size="10.00">run_MotEvo_analysis</text>
<text text-anchor="middle" x="614" y="-226" font-family="sans" font-size="10.00">pwm_dir: motif_HNRNPF_824</text>
</g>
<!-- 22&#45;&gt;2 -->
<g id="edge22" class="edge"><title>22&#45;&gt;2</title>
<path fill="none" stroke="grey" stroke-width="2" d="M694.337,-217.203C753.077,-205.653 832.368,-190.063 890.832,-178.567"/>
<polygon fill="grey" stroke="grey" stroke-width="2" points="891.625,-181.978 900.762,-176.614 890.274,-175.109 891.625,-181.978"/>
</g>
<!-- 23 -->
<g id="node24" class="node"><title>23</title>
<path fill="none" stroke="#d89556" stroke-width="2" d="M1994,-396C1994,-396 1852,-396 1852,-396 1846,-396 1840,-390 1840,-384 1840,-384 1840,-372 1840,-372 1840,-366 1846,-360 1852,-360 1852,-360 1994,-360 1994,-360 2000,-360 2006,-366 2006,-372 2006,-372 2006,-384 2006,-384 2006,-390 2000,-396 1994,-396"/>
<text text-anchor="middle" x="1923" y="-381" font-family="sans" font-size="10.00">create_results_directory</text>
<text text-anchor="middle" x="1923" y="-370" font-family="sans" font-size="10.00">outdir: tests/integration/output</text>
</g>
<!-- 23&#45;&gt;3 -->
<g id="edge23" class="edge"><title>23&#45;&gt;3</title>
<path fill="none" stroke="grey" stroke-width="2" d="M1900.56,-359.781C1888.13,-349.838 1872.67,-336.799 1860,-324 1849.06,-312.949 1784.66,-223.43 1771,-216 1651.26,-150.861 1599.43,-198.745 1460.18,-180.035"/>
<polygon fill="grey" stroke="grey" stroke-width="2" points="1460.4,-176.531 1450.01,-178.571 1459.4,-183.459 1460.4,-176.531"/>
</g>
<!-- 23&#45;&gt;4 -->
<g id="edge24" class="edge"><title>23&#45;&gt;4</title>
<path fill="none" stroke="grey" stroke-width="2" d="M1911.32,-359.794C1884.33,-320.233 1818.79,-225.46 1804,-216 1800.36,-213.671 1710.4,-195.347 1638.15,-180.888"/>
<polygon fill="grey" stroke="grey" stroke-width="2" points="1638.57,-177.404 1628.08,-178.876 1637.2,-184.268 1638.57,-177.404"/>
</g>
<!-- 23&#45;&gt;5 -->
<g id="edge25" class="edge"><title>23&#45;&gt;5</title>
<path fill="none" stroke="grey" stroke-width="2" d="M1918.46,-359.658C1909.2,-327.4 1885.27,-257.675 1842,-216 1827.94,-202.463 1809.82,-191.964 1792.09,-184.017"/>
<polygon fill="grey" stroke="grey" stroke-width="2" points="1793.45,-180.793 1782.88,-180.092 1790.7,-187.232 1793.45,-180.793"/>
</g>
<!-- 23&#45;&gt;6 -->
<g id="edge26" class="edge"><title>23&#45;&gt;6</title>
<path fill="none" stroke="grey" stroke-width="2" d="M1921.48,-359.849C1918.19,-322.832 1910.41,-235.181 1906.43,-190.386"/>
<polygon fill="grey" stroke="grey" stroke-width="2" points="1909.9,-189.884 1905.53,-180.232 1902.93,-190.503 1909.9,-189.884"/>
</g>
<!-- 23&#45;&gt;7 -->
<g id="edge27" class="edge"><title>23&#45;&gt;7</title>
<path fill="none" stroke="grey" stroke-width="2" d="M1925.68,-359.879C1931.74,-323.078 1947.42,-237.987 1966,-216 1977.53,-202.358 1993.31,-192.05 2009.52,-184.331"/>
<polygon fill="grey" stroke="grey" stroke-width="2" points="2011.37,-187.34 2019.08,-180.079 2008.52,-180.943 2011.37,-187.34"/>
</g>
<!-- 23&#45;&gt;8 -->
<g id="edge28" class="edge"><title>23&#45;&gt;8</title>
<path fill="none" stroke="grey" stroke-width="2" d="M1934.42,-359.707C1947.95,-340.252 1972.1,-308.679 1999,-288 2061,-240.341 2144.1,-204.426 2199.71,-183.593"/>
<polygon fill="grey" stroke="grey" stroke-width="2" points="2201.26,-186.754 2209.42,-180.004 2198.83,-180.188 2201.26,-186.754"/>
</g>
<!-- 23&#45;&gt;9 -->
<g id="edge29" class="edge"><title>23&#45;&gt;9</title>
<path fill="none" stroke="grey" stroke-width="2" d="M1963.36,-359.876C1986.02,-350.264 2014.47,-338.193 2038.47,-328.013"/>
<polygon fill="grey" stroke="grey" stroke-width="2" points="2039.93,-331.196 2047.77,-324.068 2037.19,-324.752 2039.93,-331.196"/>
</g>
<!-- 23&#45;&gt;10 -->
<g id="edge30" class="edge"><title>23&#45;&gt;10</title>
<path fill="none" stroke="grey" stroke-width="2" d="M2006.03,-360.055C2057.35,-349.583 2123.21,-336.14 2175.81,-325.407"/>
<polygon fill="grey" stroke="grey" stroke-width="2" points="2176.7,-328.796 2185.8,-323.367 2175.3,-321.937 2176.7,-328.796"/>
</g>
<!-- 23&#45;&gt;11 -->
<g id="edge31" class="edge"><title>23&#45;&gt;11</title>
<path fill="none" stroke="grey" stroke-width="2" d="M2006.05,-368.474C2090.98,-359.375 2226.95,-343.765 2354.07,-324.089"/>
<polygon fill="grey" stroke="grey" stroke-width="2" points="2354.65,-327.542 2363.99,-322.543 2353.57,-320.626 2354.65,-327.542"/>
</g>
<!-- 23&#45;&gt;12 -->
<g id="edge32" class="edge"><title>23&#45;&gt;12</title>
<path fill="none" stroke="grey" stroke-width="2" d="M2006.18,-372.471C2121.87,-365.571 2338.03,-350.5 2531.46,-324.137"/>
<polygon fill="grey" stroke="grey" stroke-width="2" points="2532.1,-327.582 2541.53,-322.752 2531.15,-320.648 2532.1,-327.582"/>
</g>
<!-- 24 -->
<g id="node25" class="node"><title>24</title>
<path fill="none" stroke="#56d89a" stroke-width="2" d="M946.5,-324C946.5,-324 813.5,-324 813.5,-324 807.5,-324 801.5,-318 801.5,-312 801.5,-312 801.5,-300 801.5,-300 801.5,-294 807.5,-288 813.5,-288 813.5,-288 946.5,-288 946.5,-288 952.5,-288 958.5,-294 958.5,-300 958.5,-300 958.5,-312 958.5,-312 958.5,-318 952.5,-324 946.5,-324"/>
<text text-anchor="middle" x="880" y="-303.5" font-family="sans" font-size="10.00">prepare_MotEvo_parameters</text>
</g>
<!-- 23&#45;&gt;24 -->
<g id="edge53" class="edge"><title>23&#45;&gt;24</title>
<path fill="none" stroke="grey" stroke-width="2" d="M1839.95,-376.166C1675.47,-373.692 1296.61,-363.899 968.771,-323.981"/>
<polygon fill="grey" stroke="grey" stroke-width="2" points="968.951,-320.477 958.598,-322.73 968.097,-327.424 968.951,-320.477"/>
</g>
<!-- 25 -->
<g id="node26" class="node"><title>25</title>
<path fill="none" stroke="#d6d856" stroke-width="2" d="M1131,-324C1131,-324 989,-324 989,-324 983,-324 977,-318 977,-312 977,-312 977,-300 977,-300 977,-294 983,-288 989,-288 989,-288 1131,-288 1131,-288 1137,-288 1143,-294 1143,-300 1143,-300 1143,-312 1143,-312 1143,-318 1137,-324 1131,-324"/>
<text text-anchor="middle" x="1060" y="-303.5" font-family="sans" font-size="10.00">prepare_sequence_for_MotEvo</text>
</g>
<!-- 23&#45;&gt;25 -->
<g id="edge54" class="edge"><title>23&#45;&gt;25</title>
<path fill="none" stroke="grey" stroke-width="2" d="M1839.86,-370.256C1678.2,-357.144 1322.53,-328.295 1153.18,-314.558"/>
<polygon fill="grey" stroke="grey" stroke-width="2" points="1153.29,-311.055 1143.04,-313.735 1152.72,-318.032 1153.29,-311.055"/>
</g>
<!-- 24&#45;&gt;13 -->
<g id="edge33" class="edge"><title>24&#45;&gt;13</title>
<path fill="none" stroke="grey" stroke-width="2" d="M858.247,-287.697C847.164,-278.881 833.526,-268.032 821.51,-258.474"/>
<polygon fill="grey" stroke="grey" stroke-width="2" points="823.507,-255.59 813.503,-252.104 819.15,-261.069 823.507,-255.59"/>
</g>
<!-- 24&#45;&gt;14 -->
<g id="edge35" class="edge"><title>24&#45;&gt;14</title>
<path fill="none" stroke="grey" stroke-width="2" d="M902.247,-287.697C913.582,-278.881 927.53,-268.032 939.819,-258.474"/>
<polygon fill="grey" stroke="grey" stroke-width="2" points="942.264,-261.007 948.009,-252.104 937.966,-255.481 942.264,-261.007"/>
</g>
<!-- 24&#45;&gt;15 -->
<g id="edge37" class="edge"><title>24&#45;&gt;15</title>
<path fill="none" stroke="grey" stroke-width="2" d="M945.217,-287.966C983.721,-277.909 1032.62,-265.136 1072.75,-254.654"/>
<polygon fill="grey" stroke="grey" stroke-width="2" points="1073.7,-258.024 1082.49,-252.111 1071.93,-251.252 1073.7,-258.024"/>
</g>
<!-- 24&#45;&gt;16 -->
<g id="edge39" class="edge"><title>24&#45;&gt;16</title>
<path fill="none" stroke="grey" stroke-width="2" d="M958.642,-289.574C961.8,-289.029 964.929,-288.502 968,-288 1083.9,-269.065 1116.25,-271.192 1236.05,-252.1"/>
<polygon fill="grey" stroke="grey" stroke-width="2" points="1236.67,-255.547 1245.98,-250.502 1235.55,-248.636 1236.67,-255.547"/>
</g>
<!-- 24&#45;&gt;17 -->
<g id="edge41" class="edge"><title>24&#45;&gt;17</title>
<path fill="none" stroke="grey" stroke-width="2" d="M958.611,-289.368C961.778,-288.879 964.917,-288.421 968,-288 1162.2,-261.504 1215.72,-278.162 1413.4,-252.13"/>
<polygon fill="grey" stroke="grey" stroke-width="2" points="1414.09,-255.569 1423.53,-250.775 1413.16,-248.631 1414.09,-255.569"/>
</g>
<!-- 24&#45;&gt;18 -->
<g id="edge43" class="edge"><title>24&#45;&gt;18</title>
<path fill="none" stroke="grey" stroke-width="2" d="M958.599,-289.278C961.769,-288.814 964.912,-288.385 968,-288 1240.73,-253.957 1315.06,-285.388 1591.21,-252.121"/>
<polygon fill="grey" stroke="grey" stroke-width="2" points="1592.04,-255.546 1601.54,-250.858 1591.19,-248.598 1592.04,-255.546"/>
</g>
<!-- 24&#45;&gt;19 -->
<g id="edge45" class="edge"><title>24&#45;&gt;19</title>
<path fill="none" stroke="grey" stroke-width="2" d="M801.317,-302.076C671.743,-296.613 405.232,-282.648 170.555,-252.122"/>
<polygon fill="grey" stroke="grey" stroke-width="2" points="170.834,-248.629 160.463,-250.796 169.922,-255.569 170.834,-248.629"/>
</g>
<!-- 24&#45;&gt;20 -->
<g id="edge47" class="edge"><title>24&#45;&gt;20</title>
<path fill="none" stroke="grey" stroke-width="2" d="M801.162,-299.382C698.938,-291.6 514.954,-275.903 348.407,-252.137"/>
<polygon fill="grey" stroke="grey" stroke-width="2" points="348.872,-248.667 338.476,-250.707 347.875,-255.596 348.872,-248.667"/>
</g>
<!-- 24&#45;&gt;21 -->
<g id="edge49" class="edge"><title>24&#45;&gt;21</title>
<path fill="none" stroke="grey" stroke-width="2" d="M801.246,-294.176C731.532,-284.38 626.776,-269.138 526.071,-252.147"/>
<polygon fill="grey" stroke="grey" stroke-width="2" points="526.47,-248.665 516.026,-250.444 525.3,-255.567 526.47,-248.665"/>
</g>
<!-- 24&#45;&gt;22 -->
<g id="edge51" class="edge"><title>24&#45;&gt;22</title>
<path fill="none" stroke="grey" stroke-width="2" d="M815.269,-287.966C777.134,-277.93 728.724,-265.19 688.939,-254.721"/>
<polygon fill="grey" stroke="grey" stroke-width="2" points="689.583,-251.271 679.021,-252.111 687.801,-258.041 689.583,-251.271"/>
</g>
<!-- 25&#45;&gt;13 -->
<g id="edge34" class="edge"><title>25&#45;&gt;13</title>
<path fill="none" stroke="grey" stroke-width="2" d="M994.783,-287.966C956.279,-277.909 907.38,-265.136 867.247,-254.654"/>
<polygon fill="grey" stroke="grey" stroke-width="2" points="868.07,-251.252 857.51,-252.111 866.301,-258.024 868.07,-251.252"/>
</g>
<!-- 25&#45;&gt;14 -->
<g id="edge36" class="edge"><title>25&#45;&gt;14</title>
<path fill="none" stroke="grey" stroke-width="2" d="M1037.75,-287.697C1026.42,-278.881 1012.47,-268.032 1000.18,-258.474"/>
<polygon fill="grey" stroke="grey" stroke-width="2" points="1002.03,-255.481 991.991,-252.104 997.736,-261.007 1002.03,-255.481"/>
</g>
<!-- 25&#45;&gt;15 -->
<g id="edge38" class="edge"><title>25&#45;&gt;15</title>
<path fill="none" stroke="grey" stroke-width="2" d="M1081.75,-287.697C1092.84,-278.881 1106.47,-268.032 1118.49,-258.474"/>
<polygon fill="grey" stroke="grey" stroke-width="2" points="1120.85,-261.069 1126.5,-252.104 1116.49,-255.59 1120.85,-261.069"/>
</g>
<!-- 25&#45;&gt;16 -->
<g id="edge40" class="edge"><title>25&#45;&gt;16</title>
<path fill="none" stroke="grey" stroke-width="2" d="M1124.73,-287.966C1162.87,-277.93 1211.28,-265.19 1251.06,-254.721"/>
<polygon fill="grey" stroke="grey" stroke-width="2" points="1252.2,-258.041 1260.98,-252.111 1250.42,-251.271 1252.2,-258.041"/>
</g>
<!-- 25&#45;&gt;17 -->
<g id="edge42" class="edge"><title>25&#45;&gt;17</title>
<path fill="none" stroke="grey" stroke-width="2" d="M1143.36,-293.528C1213,-283.719 1315.18,-268.808 1413.82,-252.165"/>
<polygon fill="grey" stroke="grey" stroke-width="2" points="1414.7,-255.567 1423.97,-250.444 1413.53,-248.665 1414.7,-255.567"/>
</g>
<!-- 25&#45;&gt;18 -->
<g id="edge44" class="edge"><title>25&#45;&gt;18</title>
<path fill="none" stroke="grey" stroke-width="2" d="M1143.37,-299.036C1246.36,-291.145 1427.11,-275.595 1591.24,-252.187"/>
<polygon fill="grey" stroke="grey" stroke-width="2" points="1592.12,-255.596 1601.52,-250.707 1591.13,-248.667 1592.12,-255.596"/>
</g>
<!-- 25&#45;&gt;19 -->
<g id="edge46" class="edge"><title>25&#45;&gt;19</title>
<path fill="none" stroke="grey" stroke-width="2" d="M976.93,-289.238C973.581,-288.786 970.262,-288.37 967,-288 617.507,-248.359 523.345,-292.576 170.433,-252.064"/>
<polygon fill="grey" stroke="grey" stroke-width="2" points="170.787,-248.582 160.45,-250.903 169.979,-255.535 170.787,-248.582"/>
</g>
<!-- 25&#45;&gt;20 -->
<g id="edge48" class="edge"><title>25&#45;&gt;20</title>
<path fill="none" stroke="grey" stroke-width="2" d="M976.924,-289.292C973.577,-288.825 970.259,-288.391 967,-288 696.291,-255.523 622.71,-285.222 348.707,-252.113"/>
<polygon fill="grey" stroke="grey" stroke-width="2" points="348.807,-248.599 338.456,-250.856 347.955,-255.547 348.807,-248.599"/>
</g>
<!-- 25&#45;&gt;21 -->
<g id="edge50" class="edge"><title>25&#45;&gt;21</title>
<path fill="none" stroke="grey" stroke-width="2" d="M976.912,-289.389C973.568,-288.895 970.255,-288.429 967,-288 774.839,-262.675 722.044,-277.999 526.494,-252.118"/>
<polygon fill="grey" stroke="grey" stroke-width="2" points="526.843,-248.633 516.467,-250.771 525.912,-255.571 526.843,-248.633"/>
</g>
<!-- 25&#45;&gt;22 -->
<g id="edge52" class="edge"><title>25&#45;&gt;22</title>
<path fill="none" stroke="grey" stroke-width="2" d="M976.879,-289.613C973.545,-289.057 970.242,-288.517 967,-288 853.256,-269.858 821.582,-271.034 704.131,-252.135"/>
<polygon fill="grey" stroke="grey" stroke-width="2" points="704.45,-248.641 694.018,-250.492 703.327,-255.55 704.45,-248.641"/>
</g>
</g>
</svg>
