<?xml version="1.0" encoding="UTF-8" standalone="no"?>
<!DOCTYPE svg PUBLIC "-//W3C//DTD SVG 1.1//EN"
 "http://www.w3.org/Graphics/SVG/1.1/DTD/svg11.dtd">
<!-- Generated by graphviz version 2.38.0 (20140413.2041)
 -->
<!-- Title: snakemake_dag Pages: 1 -->
<svg width="1787pt" height="404pt"
 viewBox="0.00 0.00 1786.78 404.00" xmlns="http://www.w3.org/2000/svg" xmlns:xlink="http://www.w3.org/1999/xlink">
<g id="graph0" class="graph" transform="scale(1 1) rotate(0) translate(4 400)">
<title>snakemake_dag</title>
<polygon fill="white" stroke="none" points="-4,4 -4,-400 1782.78,-400 1782.78,4 -4,4"/>
<!-- 0 -->
<g id="node1" class="node"><title>0</title>
<path fill="none" stroke="#d89556" stroke-width="2" stroke-dasharray="5,2" d="M1051,-36C1051,-36 1021,-36 1021,-36 1015,-36 1009,-30 1009,-24 1009,-24 1009,-12 1009,-12 1009,-6 1015,-0 1021,-0 1021,-0 1051,-0 1051,-0 1057,-0 1063,-6 1063,-12 1063,-12 1063,-24 1063,-24 1063,-30 1057,-36 1051,-36"/>
<text text-anchor="middle" x="1036" y="-15.5" font-family="sans" font-size="10.00">all</text>
</g>
<!-- 1 -->
<g id="node2" class="node"><title>1</title>
<path fill="none" stroke="#56d89a" stroke-width="2" stroke-dasharray="5,2" d="M1054.5,-108C1054.5,-108 899.5,-108 899.5,-108 893.5,-108 887.5,-102 887.5,-96 887.5,-96 887.5,-84 887.5,-84 887.5,-78 893.5,-72 899.5,-72 899.5,-72 1054.5,-72 1054.5,-72 1060.5,-72 1066.5,-78 1066.5,-84 1066.5,-84 1066.5,-96 1066.5,-96 1066.5,-102 1060.5,-108 1054.5,-108"/>
<text text-anchor="middle" x="977" y="-87.5" font-family="sans" font-size="10.00">plot_heatmap_of_MotEvo_results</text>
</g>
<!-- 1&#45;&gt;0 -->
<g id="edge1" class="edge"><title>1&#45;&gt;0</title>
<path fill="none" stroke="grey" stroke-width="2" d="M991.584,-71.6966C998.658,-63.3046 1007.28,-53.0705 1015.05,-43.8613"/>
<polygon fill="grey" stroke="grey" stroke-width="2" points="1017.81,-46.0063 1021.58,-36.1043 1012.46,-41.495 1017.81,-46.0063"/>
</g>
<!-- 2 -->
<g id="node3" class="node"><title>2</title>
<path fill="none" stroke="#56d8d8" stroke-width="2" stroke-dasharray="5,2" d="M1500.5,-180C1500.5,-180 1405.5,-180 1405.5,-180 1399.5,-180 1393.5,-174 1393.5,-168 1393.5,-168 1393.5,-156 1393.5,-156 1393.5,-150 1399.5,-144 1405.5,-144 1405.5,-144 1500.5,-144 1500.5,-144 1506.5,-144 1512.5,-150 1512.5,-156 1512.5,-156 1512.5,-168 1512.5,-168 1512.5,-174 1506.5,-180 1500.5,-180"/>
<text text-anchor="middle" x="1453" y="-159.5" font-family="sans" font-size="10.00">plot_sequence_logos</text>
</g>
<!-- 2&#45;&gt;0 -->
<g id="edge2" class="edge"><title>2&#45;&gt;0</title>
<path fill="none" stroke="grey" stroke-width="2" d="M1402.7,-143.871C1317.77,-114.951 1147.89,-57.1022 1072.96,-31.586"/>
<polygon fill="grey" stroke="grey" stroke-width="2" points="1073.63,-28.1169 1063.04,-28.2065 1071.37,-34.7433 1073.63,-28.1169"/>
</g>
<!-- 3 -->
<g id="node4" class="node"><title>3</title>
<path fill="none" stroke="#d85656" stroke-width="2" stroke-dasharray="5,2" d="M1027,-180C1027,-180 913,-180 913,-180 907,-180 901,-174 901,-168 901,-168 901,-156 901,-156 901,-150 907,-144 913,-144 913,-144 1027,-144 1027,-144 1033,-144 1039,-150 1039,-156 1039,-156 1039,-168 1039,-168 1039,-174 1033,-180 1027,-180"/>
<text text-anchor="middle" x="970" y="-159.5" font-family="sans" font-size="10.00">combine_MotEvo_results</text>
</g>
<!-- 3&#45;&gt;1 -->
<g id="edge3" class="edge"><title>3&#45;&gt;1</title>
<path fill="none" stroke="grey" stroke-width="2" d="M971.73,-143.697C972.502,-135.983 973.429,-126.712 974.289,-118.112"/>
<polygon fill="grey" stroke="grey" stroke-width="2" points="977.777,-118.403 975.29,-108.104 970.812,-117.706 977.777,-118.403"/>
</g>
<!-- 4 -->
<g id="node5" class="node"><title>4</title>
<path fill="none" stroke="#569ad8" stroke-width="2" stroke-dasharray="5,2" d="M1043,-396C1043,-396 901,-396 901,-396 895,-396 889,-390 889,-384 889,-384 889,-372 889,-372 889,-366 895,-360 901,-360 901,-360 1043,-360 1043,-360 1049,-360 1055,-366 1055,-372 1055,-372 1055,-384 1055,-384 1055,-390 1049,-396 1043,-396"/>
<text text-anchor="middle" x="972" y="-381" font-family="sans" font-size="10.00">create_results_directory</text>
<text text-anchor="middle" x="972" y="-370" font-family="sans" font-size="10.00">outdir: tests/integration/output</text>
</g>
<!-- 4&#45;&gt;2 -->
<g id="edge4" class="edge"><title>4&#45;&gt;2</title>
<path fill="none" stroke="grey" stroke-width="2" d="M1055.13,-377.005C1240.66,-375.066 1679.43,-359.01 1771,-252 1781.4,-239.843 1781.34,-228.208 1771,-216 1739.83,-179.206 1606.55,-167.932 1522.74,-164.492"/>
<polygon fill="grey" stroke="grey" stroke-width="2" points="1522.65,-160.987 1512.52,-164.102 1522.38,-167.981 1522.65,-160.987"/>
</g>
<!-- 15 -->
<g id="node16" class="node"><title>15</title>
<path fill="none" stroke="#97d856" stroke-width="2" stroke-dasharray="5,2" d="M1038.5,-324C1038.5,-324 905.5,-324 905.5,-324 899.5,-324 893.5,-318 893.5,-312 893.5,-312 893.5,-300 893.5,-300 893.5,-294 899.5,-288 905.5,-288 905.5,-288 1038.5,-288 1038.5,-288 1044.5,-288 1050.5,-294 1050.5,-300 1050.5,-300 1050.5,-312 1050.5,-312 1050.5,-318 1044.5,-324 1038.5,-324"/>
<text text-anchor="middle" x="972" y="-303.5" font-family="sans" font-size="10.00">prepare_MotEvo_parameters</text>
</g>
<!-- 4&#45;&gt;15 -->
<g id="edge35" class="edge"><title>4&#45;&gt;15</title>
<path fill="none" stroke="grey" stroke-width="2" d="M972,-359.697C972,-351.983 972,-342.712 972,-334.112"/>
<polygon fill="grey" stroke="grey" stroke-width="2" points="975.5,-334.104 972,-324.104 968.5,-334.104 975.5,-334.104"/>
</g>
<!-- 16 -->
<g id="node17" class="node"><title>16</title>
<path fill="none" stroke="#d6d856" stroke-width="2" stroke-dasharray="5,2" d="M863,-324C863,-324 721,-324 721,-324 715,-324 709,-318 709,-312 709,-312 709,-300 709,-300 709,-294 715,-288 721,-288 721,-288 863,-288 863,-288 869,-288 875,-294 875,-300 875,-300 875,-312 875,-312 875,-318 869,-324 863,-324"/>
<text text-anchor="middle" x="792" y="-303.5" font-family="sans" font-size="10.00">prepare_sequence_for_MotEvo</text>
</g>
<!-- 4&#45;&gt;16 -->
<g id="edge36" class="edge"><title>4&#45;&gt;16</title>
<path fill="none" stroke="grey" stroke-width="2" d="M927.967,-359.876C903.032,-350.179 871.662,-337.98 845.338,-327.743"/>
<polygon fill="grey" stroke="grey" stroke-width="2" points="846.479,-324.431 835.89,-324.068 843.941,-330.955 846.479,-324.431"/>
</g>
<!-- 5 -->
<g id="node6" class="node"><title>5</title>
<path fill="none" stroke="#59d856" stroke-width="2" stroke-dasharray="5,2" d="M1572,-252C1572,-252 1436,-252 1436,-252 1430,-252 1424,-246 1424,-240 1424,-240 1424,-228 1424,-228 1424,-222 1430,-216 1436,-216 1436,-216 1572,-216 1572,-216 1578,-216 1584,-222 1584,-228 1584,-228 1584,-240 1584,-240 1584,-246 1578,-252 1572,-252"/>
<text text-anchor="middle" x="1504" y="-237" font-family="sans" font-size="10.00">run_MotEvo_analysis</text>
<text text-anchor="middle" x="1504" y="-226" font-family="sans" font-size="10.00">pwm_dir: motif_HNRNPF_829</text>
</g>
<!-- 5&#45;&gt;3 -->
<g id="edge5" class="edge"><title>5&#45;&gt;3</title>
<path fill="none" stroke="grey" stroke-width="2" d="M1423.99,-217.443C1420.96,-216.941 1417.95,-216.457 1415,-216 1287.48,-196.252 1138.4,-179.846 1049.23,-170.741"/>
<polygon fill="grey" stroke="grey" stroke-width="2" points="1049.5,-167.25 1039.2,-169.721 1048.79,-174.214 1049.5,-167.25"/>
</g>
<!-- 6 -->
<g id="node7" class="node"><title>6</title>
<path fill="none" stroke="#59d856" stroke-width="2" stroke-dasharray="5,2" d="M1750,-252C1750,-252 1614,-252 1614,-252 1608,-252 1602,-246 1602,-240 1602,-240 1602,-228 1602,-228 1602,-222 1608,-216 1614,-216 1614,-216 1750,-216 1750,-216 1756,-216 1762,-222 1762,-228 1762,-228 1762,-240 1762,-240 1762,-246 1756,-252 1750,-252"/>
<text text-anchor="middle" x="1682" y="-237" font-family="sans" font-size="10.00">run_MotEvo_analysis</text>
<text text-anchor="middle" x="1682" y="-226" font-family="sans" font-size="10.00">pwm_dir: motif_HNRNPF_825</text>
</g>
<!-- 6&#45;&gt;3 -->
<g id="edge6" class="edge"><title>6&#45;&gt;3</title>
<path fill="none" stroke="grey" stroke-width="2" d="M1601.53,-217.242C1598.66,-216.802 1595.81,-216.386 1593,-216 1398.65,-189.245 1168.2,-173.851 1049.49,-167.112"/>
<polygon fill="grey" stroke="grey" stroke-width="2" points="1049.58,-163.612 1039.4,-166.545 1049.19,-170.601 1049.58,-163.612"/>
</g>
<!-- 7 -->
<g id="node8" class="node"><title>7</title>
<path fill="none" stroke="#59d856" stroke-width="2" stroke-dasharray="5,2" d="M148,-252C148,-252 12,-252 12,-252 6,-252 0,-246 0,-240 0,-240 0,-228 0,-228 0,-222 6,-216 12,-216 12,-216 148,-216 148,-216 154,-216 160,-222 160,-228 160,-228 160,-240 160,-240 160,-246 154,-252 148,-252"/>
<text text-anchor="middle" x="80" y="-237" font-family="sans" font-size="10.00">run_MotEvo_analysis</text>
<text text-anchor="middle" x="80" y="-226" font-family="sans" font-size="10.00">pwm_dir: motif_HNRNPF_821</text>
</g>
<!-- 7&#45;&gt;3 -->
<g id="edge7" class="edge"><title>7&#45;&gt;3</title>
<path fill="none" stroke="grey" stroke-width="2" d="M160.459,-217.173C163.338,-216.753 166.191,-216.36 169,-216 432.076,-182.3 746.671,-169.415 890.804,-165.022"/>
<polygon fill="grey" stroke="grey" stroke-width="2" points="890.994,-168.518 900.884,-164.72 890.784,-161.521 890.994,-168.518"/>
</g>
<!-- 8 -->
<g id="node9" class="node"><title>8</title>
<path fill="none" stroke="#59d856" stroke-width="2" stroke-dasharray="5,2" d="M326,-252C326,-252 190,-252 190,-252 184,-252 178,-246 178,-240 178,-240 178,-228 178,-228 178,-222 184,-216 190,-216 190,-216 326,-216 326,-216 332,-216 338,-222 338,-228 338,-228 338,-240 338,-240 338,-246 332,-252 326,-252"/>
<text text-anchor="middle" x="258" y="-237" font-family="sans" font-size="10.00">run_MotEvo_analysis</text>
<text text-anchor="middle" x="258" y="-226" font-family="sans" font-size="10.00">pwm_dir: motif_HNRNPF_827</text>
</g>
<!-- 8&#45;&gt;3 -->
<g id="edge8" class="edge"><title>8&#45;&gt;3</title>
<path fill="none" stroke="grey" stroke-width="2" d="M338.468,-217.242C341.344,-216.802 344.195,-216.386 347,-216 541.353,-189.245 771.798,-173.851 890.506,-167.112"/>
<polygon fill="grey" stroke="grey" stroke-width="2" points="890.809,-170.601 900.597,-166.545 890.416,-163.612 890.809,-170.601"/>
</g>
<!-- 9 -->
<g id="node10" class="node"><title>9</title>
<path fill="none" stroke="#59d856" stroke-width="2" stroke-dasharray="5,2" d="M504,-252C504,-252 368,-252 368,-252 362,-252 356,-246 356,-240 356,-240 356,-228 356,-228 356,-222 362,-216 368,-216 368,-216 504,-216 504,-216 510,-216 516,-222 516,-228 516,-228 516,-240 516,-240 516,-246 510,-252 504,-252"/>
<text text-anchor="middle" x="436" y="-237" font-family="sans" font-size="10.00">run_MotEvo_analysis</text>
<text text-anchor="middle" x="436" y="-226" font-family="sans" font-size="10.00">pwm_dir: motif_HNRNPF_820</text>
</g>
<!-- 9&#45;&gt;3 -->
<g id="edge9" class="edge"><title>9&#45;&gt;3</title>
<path fill="none" stroke="grey" stroke-width="2" d="M516.008,-217.443C519.041,-216.941 522.046,-216.457 525,-216 652.522,-196.252 801.595,-179.846 890.766,-170.741"/>
<polygon fill="grey" stroke="grey" stroke-width="2" points="891.21,-174.214 900.805,-169.721 890.502,-167.25 891.21,-174.214"/>
</g>
<!-- 10 -->
<g id="node11" class="node"><title>10</title>
<path fill="none" stroke="#59d856" stroke-width="2" stroke-dasharray="5,2" d="M682,-252C682,-252 546,-252 546,-252 540,-252 534,-246 534,-240 534,-240 534,-228 534,-228 534,-222 540,-216 546,-216 546,-216 682,-216 682,-216 688,-216 694,-222 694,-228 694,-228 694,-240 694,-240 694,-246 688,-252 682,-252"/>
<text text-anchor="middle" x="614" y="-237" font-family="sans" font-size="10.00">run_MotEvo_analysis</text>
<text text-anchor="middle" x="614" y="-226" font-family="sans" font-size="10.00">pwm_dir: motif_HNRNPF_822</text>
</g>
<!-- 10&#45;&gt;3 -->
<g id="edge10" class="edge"><title>10&#45;&gt;3</title>
<path fill="none" stroke="grey" stroke-width="2" d="M694.337,-217.203C753.077,-205.653 832.368,-190.063 890.832,-178.567"/>
<polygon fill="grey" stroke="grey" stroke-width="2" points="891.625,-181.978 900.762,-176.614 890.274,-175.109 891.625,-181.978"/>
</g>
<!-- 11 -->
<g id="node12" class="node"><title>11</title>
<path fill="none" stroke="#59d856" stroke-width="2" stroke-dasharray="5,2" d="M860,-252C860,-252 724,-252 724,-252 718,-252 712,-246 712,-240 712,-240 712,-228 712,-228 712,-222 718,-216 724,-216 724,-216 860,-216 860,-216 866,-216 872,-222 872,-228 872,-228 872,-240 872,-240 872,-246 866,-252 860,-252"/>
<text text-anchor="middle" x="792" y="-237" font-family="sans" font-size="10.00">run_MotEvo_analysis</text>
<text text-anchor="middle" x="792" y="-226" font-family="sans" font-size="10.00">pwm_dir: motif_HNRNPF_824</text>
</g>
<!-- 11&#45;&gt;3 -->
<g id="edge11" class="edge"><title>11&#45;&gt;3</title>
<path fill="none" stroke="grey" stroke-width="2" d="M835.544,-215.876C860.202,-206.179 891.223,-193.98 917.254,-183.743"/>
<polygon fill="grey" stroke="grey" stroke-width="2" points="918.572,-186.985 926.598,-180.068 916.011,-180.471 918.572,-186.985"/>
</g>
<!-- 12 -->
<g id="node13" class="node"><title>12</title>
<path fill="none" stroke="#59d856" stroke-width="2" stroke-dasharray="5,2" d="M1038,-252C1038,-252 902,-252 902,-252 896,-252 890,-246 890,-240 890,-240 890,-228 890,-228 890,-222 896,-216 902,-216 902,-216 1038,-216 1038,-216 1044,-216 1050,-222 1050,-228 1050,-228 1050,-240 1050,-240 1050,-246 1044,-252 1038,-252"/>
<text text-anchor="middle" x="970" y="-237" font-family="sans" font-size="10.00">run_MotEvo_analysis</text>
<text text-anchor="middle" x="970" y="-226" font-family="sans" font-size="10.00">pwm_dir: motif_HNRNPF_826</text>
</g>
<!-- 12&#45;&gt;3 -->
<g id="edge12" class="edge"><title>12&#45;&gt;3</title>
<path fill="none" stroke="grey" stroke-width="2" d="M970,-215.697C970,-207.983 970,-198.712 970,-190.112"/>
<polygon fill="grey" stroke="grey" stroke-width="2" points="973.5,-190.104 970,-180.104 966.5,-190.104 973.5,-190.104"/>
</g>
<!-- 13 -->
<g id="node14" class="node"><title>13</title>
<path fill="none" stroke="#59d856" stroke-width="2" stroke-dasharray="5,2" d="M1216,-252C1216,-252 1080,-252 1080,-252 1074,-252 1068,-246 1068,-240 1068,-240 1068,-228 1068,-228 1068,-222 1074,-216 1080,-216 1080,-216 1216,-216 1216,-216 1222,-216 1228,-222 1228,-228 1228,-228 1228,-240 1228,-240 1228,-246 1222,-252 1216,-252"/>
<text text-anchor="middle" x="1148" y="-237" font-family="sans" font-size="10.00">run_MotEvo_analysis</text>
<text text-anchor="middle" x="1148" y="-226" font-family="sans" font-size="10.00">pwm_dir: motif_HNRNPF_823</text>
</g>
<!-- 13&#45;&gt;3 -->
<g id="edge13" class="edge"><title>13&#45;&gt;3</title>
<path fill="none" stroke="grey" stroke-width="2" d="M1104.46,-215.876C1079.8,-206.179 1048.78,-193.98 1022.75,-183.743"/>
<polygon fill="grey" stroke="grey" stroke-width="2" points="1023.99,-180.471 1013.4,-180.068 1021.43,-186.985 1023.99,-180.471"/>
</g>
<!-- 14 -->
<g id="node15" class="node"><title>14</title>
<path fill="none" stroke="#59d856" stroke-width="2" stroke-dasharray="5,2" d="M1394,-252C1394,-252 1258,-252 1258,-252 1252,-252 1246,-246 1246,-240 1246,-240 1246,-228 1246,-228 1246,-222 1252,-216 1258,-216 1258,-216 1394,-216 1394,-216 1400,-216 1406,-222 1406,-228 1406,-228 1406,-240 1406,-240 1406,-246 1400,-252 1394,-252"/>
<text text-anchor="middle" x="1326" y="-237" font-family="sans" font-size="10.00">run_MotEvo_analysis</text>
<text text-anchor="middle" x="1326" y="-226" font-family="sans" font-size="10.00">pwm_dir: motif_HNRNPF_828</text>
</g>
<!-- 14&#45;&gt;3 -->
<g id="edge14" class="edge"><title>14&#45;&gt;3</title>
<path fill="none" stroke="grey" stroke-width="2" d="M1245.66,-217.203C1186.92,-205.653 1107.63,-190.063 1049.17,-178.567"/>
<polygon fill="grey" stroke="grey" stroke-width="2" points="1049.73,-175.109 1039.24,-176.614 1048.38,-181.978 1049.73,-175.109"/>
</g>
<!-- 15&#45;&gt;5 -->
<g id="edge15" class="edge"><title>15&#45;&gt;5</title>
<path fill="none" stroke="grey" stroke-width="2" d="M1050.65,-297.263C1137.23,-288.367 1280.72,-272.509 1414.01,-252.096"/>
<polygon fill="grey" stroke="grey" stroke-width="2" points="1414.64,-255.539 1423.99,-250.555 1413.58,-248.621 1414.64,-255.539"/>
</g>
<!-- 15&#45;&gt;6 -->
<g id="edge17" class="edge"><title>15&#45;&gt;6</title>
<path fill="none" stroke="grey" stroke-width="2" d="M1050.71,-300.903C1166.92,-294.272 1391.37,-279.245 1591.42,-252.141"/>
<polygon fill="grey" stroke="grey" stroke-width="2" points="1592.1,-255.581 1601.53,-250.757 1591.15,-248.645 1592.1,-255.581"/>
</g>
<!-- 15&#45;&gt;7 -->
<g id="edge19" class="edge"><title>15&#45;&gt;7</title>
<path fill="none" stroke="grey" stroke-width="2" d="M893.404,-289.249C890.233,-288.794 887.089,-288.374 884,-288 571.523,-250.141 486.725,-289.084 170.825,-252.116"/>
<polygon fill="grey" stroke="grey" stroke-width="2" points="170.795,-248.587 160.452,-250.884 169.97,-255.539 170.795,-248.587"/>
</g>
<!-- 15&#45;&gt;8 -->
<g id="edge21" class="edge"><title>15&#45;&gt;8</title>
<path fill="none" stroke="grey" stroke-width="2" d="M893.396,-289.315C890.227,-288.841 887.086,-288.4 884,-288 650.025,-257.676 585.993,-281.816 348.439,-252.091"/>
<polygon fill="grey" stroke="grey" stroke-width="2" points="348.821,-248.612 338.46,-250.824 347.939,-255.556 348.821,-248.612"/>
</g>
<!-- 15&#45;&gt;9 -->
<g id="edge23" class="edge"><title>15&#45;&gt;9</title>
<path fill="none" stroke="grey" stroke-width="2" d="M893.378,-289.445C890.214,-288.935 887.079,-288.451 884,-288 728.59,-265.245 685.446,-274.657 526.607,-252.159"/>
<polygon fill="grey" stroke="grey" stroke-width="2" points="526.872,-248.662 516.476,-250.704 525.877,-255.59 526.872,-248.662"/>
</g>
<!-- 15&#45;&gt;10 -->
<g id="edge25" class="edge"><title>15&#45;&gt;10</title>
<path fill="none" stroke="grey" stroke-width="2" d="M893.435,-289.638C837.594,-278.719 762.471,-264.031 704.18,-252.633"/>
<polygon fill="grey" stroke="grey" stroke-width="2" points="704.725,-249.173 694.239,-250.689 703.382,-256.043 704.725,-249.173"/>
</g>
<!-- 15&#45;&gt;11 -->
<g id="edge27" class="edge"><title>15&#45;&gt;11</title>
<path fill="none" stroke="grey" stroke-width="2" d="M927.967,-287.876C903.032,-278.179 871.662,-265.98 845.338,-255.743"/>
<polygon fill="grey" stroke="grey" stroke-width="2" points="846.479,-252.431 835.89,-252.068 843.941,-258.955 846.479,-252.431"/>
</g>
<!-- 15&#45;&gt;12 -->
<g id="edge29" class="edge"><title>15&#45;&gt;12</title>
<path fill="none" stroke="grey" stroke-width="2" d="M971.506,-287.697C971.285,-279.983 971.02,-270.712 970.775,-262.112"/>
<polygon fill="grey" stroke="grey" stroke-width="2" points="974.273,-262 970.489,-252.104 967.276,-262.2 974.273,-262"/>
</g>
<!-- 15&#45;&gt;13 -->
<g id="edge31" class="edge"><title>15&#45;&gt;13</title>
<path fill="none" stroke="grey" stroke-width="2" d="M1015.05,-287.876C1039.33,-278.222 1069.84,-266.087 1095.51,-255.878"/>
<polygon fill="grey" stroke="grey" stroke-width="2" points="1097.09,-259.016 1105.09,-252.068 1094.5,-252.512 1097.09,-259.016"/>
</g>
<!-- 15&#45;&gt;14 -->
<g id="edge33" class="edge"><title>15&#45;&gt;14</title>
<path fill="none" stroke="grey" stroke-width="2" d="M1050.56,-289.465C1105.33,-278.636 1178.53,-264.161 1235.7,-252.856"/>
<polygon fill="grey" stroke="grey" stroke-width="2" points="1236.69,-256.229 1245.82,-250.855 1235.33,-249.362 1236.69,-256.229"/>
</g>
<!-- 16&#45;&gt;5 -->
<g id="edge16" class="edge"><title>16&#45;&gt;5</title>
<path fill="none" stroke="grey" stroke-width="2" d="M875.178,-289.187C878.152,-288.763 881.099,-288.365 884,-288 1115.37,-258.879 1178.62,-281.582 1413.32,-252.123"/>
<polygon fill="grey" stroke="grey" stroke-width="2" points="1414.06,-255.557 1423.54,-250.821 1413.18,-248.613 1414.06,-255.557"/>
</g>
<!-- 16&#45;&gt;6 -->
<g id="edge18" class="edge"><title>16&#45;&gt;6</title>
<path fill="none" stroke="grey" stroke-width="2" d="M875.17,-289.123C878.146,-288.717 881.096,-288.34 884,-288 1194,-251.649 1277.95,-288.871 1591.26,-252.107"/>
<polygon fill="grey" stroke="grey" stroke-width="2" points="1592.03,-255.54 1601.55,-250.883 1591.2,-248.589 1592.03,-255.54"/>
</g>
<!-- 16&#45;&gt;7 -->
<g id="edge20" class="edge"><title>16&#45;&gt;7</title>
<path fill="none" stroke="grey" stroke-width="2" d="M708.811,-300.677C591.053,-293.945 368.886,-278.988 170.495,-252.129"/>
<polygon fill="grey" stroke="grey" stroke-width="2" points="170.85,-248.645 160.468,-250.758 169.902,-255.58 170.85,-248.645"/>
</g>
<!-- 16&#45;&gt;8 -->
<g id="edge22" class="edge"><title>16&#45;&gt;8</title>
<path fill="none" stroke="grey" stroke-width="2" d="M708.927,-296.867C621.548,-287.911 479.836,-272.255 347.894,-252.08"/>
<polygon fill="grey" stroke="grey" stroke-width="2" points="348.424,-248.62 338.008,-250.557 347.358,-255.539 348.424,-248.62"/>
</g>
<!-- 16&#45;&gt;9 -->
<g id="edge24" class="edge"><title>16&#45;&gt;9</title>
<path fill="none" stroke="grey" stroke-width="2" d="M708.983,-288.676C654.131,-277.891 582.262,-263.759 526.035,-252.703"/>
<polygon fill="grey" stroke="grey" stroke-width="2" points="526.571,-249.242 516.083,-250.747 525.22,-256.11 526.571,-249.242"/>
</g>
<!-- 16&#45;&gt;10 -->
<g id="edge26" class="edge"><title>16&#45;&gt;10</title>
<path fill="none" stroke="grey" stroke-width="2" d="M748.456,-287.876C723.798,-278.179 692.777,-265.98 666.746,-255.743"/>
<polygon fill="grey" stroke="grey" stroke-width="2" points="667.989,-252.471 657.402,-252.068 665.428,-258.985 667.989,-252.471"/>
</g>
<!-- 16&#45;&gt;11 -->
<g id="edge28" class="edge"><title>16&#45;&gt;11</title>
<path fill="none" stroke="grey" stroke-width="2" d="M792,-287.697C792,-279.983 792,-270.712 792,-262.112"/>
<polygon fill="grey" stroke="grey" stroke-width="2" points="795.5,-262.104 792,-252.104 788.5,-262.104 795.5,-262.104"/>
</g>
<!-- 16&#45;&gt;12 -->
<g id="edge30" class="edge"><title>16&#45;&gt;12</title>
<path fill="none" stroke="grey" stroke-width="2" d="M835.544,-287.876C860.202,-278.179 891.223,-265.98 917.254,-255.743"/>
<polygon fill="grey" stroke="grey" stroke-width="2" points="918.572,-258.985 926.598,-252.068 916.011,-252.471 918.572,-258.985"/>
</g>
<!-- 16&#45;&gt;13 -->
<g id="edge32" class="edge"><title>16&#45;&gt;13</title>
<path fill="none" stroke="grey" stroke-width="2" d="M875.017,-288.676C929.869,-277.891 1001.74,-263.759 1057.97,-252.703"/>
<polygon fill="grey" stroke="grey" stroke-width="2" points="1058.78,-256.11 1067.92,-250.747 1057.43,-249.242 1058.78,-256.11"/>
</g>
<!-- 16&#45;&gt;14 -->
<g id="edge34" class="edge"><title>16&#45;&gt;14</title>
<path fill="none" stroke="grey" stroke-width="2" d="M875.195,-289.315C878.164,-288.854 881.106,-288.414 884,-288 1036.91,-266.112 1079.23,-274.453 1235.55,-252.14"/>
<polygon fill="grey" stroke="grey" stroke-width="2" points="1236.13,-255.593 1245.52,-250.697 1235.12,-248.665 1236.13,-255.593"/>
</g>
</g>
</svg>
