<?xml version="1.0" encoding="UTF-8" standalone="no"?>
<!DOCTYPE svg PUBLIC "-//W3C//DTD SVG 1.1//EN"
 "http://www.w3.org/Graphics/SVG/1.1/DTD/svg11.dtd">
<!-- Generated by graphviz version 2.38.0 (20140413.2041)
 -->
<!-- Title: snakemake_dag Pages: 1 -->
<svg width="334pt" height="260pt"
 viewBox="0.00 0.00 333.58 260.00" xmlns="http://www.w3.org/2000/svg" xmlns:xlink="http://www.w3.org/1999/xlink">
<g id="graph0" class="graph" transform="scale(1 1) rotate(0) translate(4 256)">
<title>snakemake_dag</title>
<polygon fill="white" stroke="none" points="-4,4 -4,-256 329.581,-256 329.581,4 -4,4"/>
<!-- 0 -->
<g id="node1" class="node"><title>0</title>
<path fill="none" stroke="#56c1d8" stroke-width="2" d="M174.034,-36C174.034,-36 144.034,-36 144.034,-36 138.034,-36 132.034,-30 132.034,-24 132.034,-24 132.034,-12 132.034,-12 132.034,-6 138.034,-0 144.034,-0 144.034,-0 174.034,-0 174.034,-0 180.034,-0 186.034,-6 186.034,-12 186.034,-12 186.034,-24 186.034,-24 186.034,-30 180.034,-36 174.034,-36"/>
<text text-anchor="middle" x="159.034" y="-15" font-family="sans" font-size="10.00">all</text>
</g>
<!-- 1 -->
<g id="node2" class="node"><title>1</title>
<path fill="none" stroke="#56d88a" stroke-width="2" d="M192.626,-108C192.626,-108 125.442,-108 125.442,-108 119.442,-108 113.442,-102 113.442,-96 113.442,-96 113.442,-84 113.442,-84 113.442,-78 119.442,-72 125.442,-72 125.442,-72 192.626,-72 192.626,-72 198.626,-72 204.626,-78 204.626,-84 204.626,-84 204.626,-96 204.626,-96 204.626,-102 198.626,-108 192.626,-108"/>
<text text-anchor="middle" x="159.034" y="-87" font-family="sans" font-size="10.00">MotEvo_analysis</text>
</g>
<!-- 1&#45;&gt;0 -->
<g id="edge1" class="edge"><title>1&#45;&gt;0</title>
<path fill="none" stroke="grey" stroke-width="2" d="M159.034,-71.6966C159.034,-63.9827 159.034,-54.7125 159.034,-46.1124"/>
<polygon fill="grey" stroke="grey" stroke-width="2" points="162.534,-46.1043 159.034,-36.1043 155.534,-46.1044 162.534,-46.1043"/>
</g>
<!-- 2 -->
<g id="node3" class="node"><title>2</title>
<path fill="none" stroke="#d85656" stroke-width="2" d="M134.103,-180C134.103,-180 11.9658,-180 11.9658,-180 5.9658,-180 -0.0341957,-174 -0.0341957,-168 -0.0341957,-168 -0.0341957,-156 -0.0341957,-156 -0.0341957,-150 5.9658,-144 11.9658,-144 11.9658,-144 134.103,-144 134.103,-144 140.103,-144 146.103,-150 146.103,-156 146.103,-156 146.103,-168 146.103,-168 146.103,-174 140.103,-180 134.103,-180"/>
<text text-anchor="middle" x="73.0342" y="-159" font-family="sans" font-size="10.00">prepare_MotEvo_parameters</text>
</g>
<!-- 2&#45;&gt;1 -->
<g id="edge3" class="edge"><title>2&#45;&gt;1</title>
<path fill="none" stroke="grey" stroke-width="2" d="M94.2926,-143.697C105.124,-134.881 118.452,-124.032 130.194,-114.474"/>
<polygon fill="grey" stroke="grey" stroke-width="2" points="132.474,-117.132 138.02,-108.104 128.055,-111.703 132.474,-117.132"/>
</g>
<!-- 3 -->
<g id="node4" class="node"><title>3</title>
<path fill="none" stroke="#88d856" stroke-width="2" d="M313.627,-180C313.627,-180 176.441,-180 176.441,-180 170.441,-180 164.441,-174 164.441,-168 164.441,-168 164.441,-156 164.441,-156 164.441,-150 170.441,-144 176.441,-144 176.441,-144 313.627,-144 313.627,-144 319.627,-144 325.627,-150 325.627,-156 325.627,-156 325.627,-168 325.627,-168 325.627,-174 319.627,-180 313.627,-180"/>
<text text-anchor="middle" x="245.034" y="-159" font-family="sans" font-size="10.00">prepare_sequences_for_MotEvo</text>
</g>
<!-- 3&#45;&gt;1 -->
<g id="edge2" class="edge"><title>3&#45;&gt;1</title>
<path fill="none" stroke="grey" stroke-width="2" d="M223.776,-143.697C212.945,-134.881 199.616,-124.032 187.874,-114.474"/>
<polygon fill="grey" stroke="grey" stroke-width="2" points="190.013,-111.703 180.048,-108.104 185.594,-117.132 190.013,-111.703"/>
</g>
<!-- 4 -->
<g id="node5" class="node"><title>4</title>
<path fill="none" stroke="#d8bc56" stroke-width="2" d="M184.404,-252C184.404,-252 133.664,-252 133.664,-252 127.664,-252 121.664,-246 121.664,-240 121.664,-240 121.664,-228 121.664,-228 121.664,-222 127.664,-216 133.664,-216 133.664,-216 184.404,-216 184.404,-216 190.404,-216 196.404,-222 196.404,-228 196.404,-228 196.404,-240 196.404,-240 196.404,-246 190.404,-252 184.404,-252"/>
<text text-anchor="middle" x="159.034" y="-231" font-family="sans" font-size="10.00">create_outdir</text>
</g>
<!-- 4&#45;&gt;2 -->
<g id="edge4" class="edge"><title>4&#45;&gt;2</title>
<path fill="none" stroke="grey" stroke-width="2" d="M137.776,-215.697C126.945,-206.881 113.616,-196.032 101.874,-186.474"/>
<polygon fill="grey" stroke="grey" stroke-width="2" points="104.013,-183.703 94.0481,-180.104 99.5943,-189.132 104.013,-183.703"/>
</g>
<!-- 4&#45;&gt;3 -->
<g id="edge5" class="edge"><title>4&#45;&gt;3</title>
<path fill="none" stroke="grey" stroke-width="2" d="M180.293,-215.697C191.124,-206.881 204.452,-196.032 216.194,-186.474"/>
<polygon fill="grey" stroke="grey" stroke-width="2" points="218.474,-189.132 224.02,-180.104 214.055,-183.703 218.474,-189.132"/>
</g>
</g>
</svg>
