<?xml version="1.0" encoding="UTF-8" standalone="no"?>
<!DOCTYPE svg PUBLIC "-//W3C//DTD SVG 1.1//EN"
 "http://www.w3.org/Graphics/SVG/1.1/DTD/svg11.dtd">
<!-- Generated by graphviz version 2.38.0 (20140413.2041)
 -->
<!-- Title: snakemake_dag Pages: 1 -->
<svg width="402pt" height="332pt"
 viewBox="0.00 0.00 401.54 332.00" xmlns="http://www.w3.org/2000/svg" xmlns:xlink="http://www.w3.org/1999/xlink">
<g id="graph0" class="graph" transform="scale(1 1) rotate(0) translate(4 328)">
<title>snakemake_dag</title>
<polygon fill="white" stroke="none" points="-4,4 -4,-328 397.536,-328 397.536,4 -4,4"/>
<!-- 0 -->
<g id="node1" class="node"><title>0</title>
<path fill="none" stroke="#56d8d8" stroke-width="2" d="M177.49,-36C177.49,-36 147.49,-36 147.49,-36 141.49,-36 135.49,-30 135.49,-24 135.49,-24 135.49,-12 135.49,-12 135.49,-6 141.49,-0 147.49,-0 147.49,-0 177.49,-0 177.49,-0 183.49,-0 189.49,-6 189.49,-12 189.49,-12 189.49,-24 189.49,-24 189.49,-30 183.49,-36 177.49,-36"/>
<text text-anchor="middle" x="162.49" y="-15" font-family="sans" font-size="10.00">all</text>
</g>
<!-- 1 -->
<g id="node2" class="node"><title>1</title>
<path fill="none" stroke="#d89556" stroke-width="2" d="M152.969,-108C152.969,-108 12.0103,-108 12.0103,-108 6.01025,-108 0.0102526,-102 0.0102526,-96 0.0102526,-96 0.0102526,-84 0.0102526,-84 0.0102526,-78 6.01025,-72 12.0103,-72 12.0103,-72 152.969,-72 152.969,-72 158.969,-72 164.969,-78 164.969,-84 164.969,-84 164.969,-96 164.969,-96 164.969,-102 158.969,-108 152.969,-108"/>
<text text-anchor="middle" x="82.4897" y="-87" font-family="sans" font-size="10.00">plot_heatmap_of_MotEvo_results</text>
</g>
<!-- 1&#45;&gt;0 -->
<g id="edge2" class="edge"><title>1&#45;&gt;0</title>
<path fill="none" stroke="grey" stroke-width="2" d="M102.265,-71.6966C112.243,-62.9655 124.501,-52.2405 135.347,-42.7503"/>
<polygon fill="grey" stroke="grey" stroke-width="2" points="137.721,-45.3234 142.942,-36.1043 133.111,-40.0554 137.721,-45.3234"/>
</g>
<!-- 2 -->
<g id="node3" class="node"><title>2</title>
<path fill="none" stroke="#56d89a" stroke-width="2" d="M289.851,-108C289.851,-108 195.128,-108 195.128,-108 189.128,-108 183.128,-102 183.128,-96 183.128,-96 183.128,-84 183.128,-84 183.128,-78 189.128,-72 195.128,-72 195.128,-72 289.851,-72 289.851,-72 295.851,-72 301.851,-78 301.851,-84 301.851,-84 301.851,-96 301.851,-96 301.851,-102 295.851,-108 289.851,-108"/>
<text text-anchor="middle" x="242.49" y="-87" font-family="sans" font-size="10.00">prepare_output_bedfile</text>
</g>
<!-- 2&#45;&gt;0 -->
<g id="edge1" class="edge"><title>2&#45;&gt;0</title>
<path fill="none" stroke="grey" stroke-width="2" d="M222.714,-71.6966C212.736,-62.9655 200.479,-52.2405 189.633,-42.7503"/>
<polygon fill="grey" stroke="grey" stroke-width="2" points="191.868,-40.0554 182.038,-36.1043 187.259,-45.3234 191.868,-40.0554"/>
</g>
<!-- 3 -->
<g id="node4" class="node"><title>3</title>
<path fill="none" stroke="#59d856" stroke-width="2" d="M282.765,-180C282.765,-180 178.214,-180 178.214,-180 172.214,-180 166.214,-174 166.214,-168 166.214,-168 166.214,-156 166.214,-156 166.214,-150 172.214,-144 178.214,-144 178.214,-144 282.765,-144 282.765,-144 288.765,-144 294.765,-150 294.765,-156 294.765,-156 294.765,-168 294.765,-168 294.765,-174 288.765,-180 282.765,-180"/>
<text text-anchor="middle" x="230.49" y="-159" font-family="sans" font-size="10.00">combine_MotEvo_results</text>
</g>
<!-- 3&#45;&gt;1 -->
<g id="edge4" class="edge"><title>3&#45;&gt;1</title>
<path fill="none" stroke="grey" stroke-width="2" d="M194.285,-143.876C174.232,-134.392 149.118,-122.513 127.776,-112.419"/>
<polygon fill="grey" stroke="grey" stroke-width="2" points="129.113,-109.18 118.577,-108.068 126.12,-115.508 129.113,-109.18"/>
</g>
<!-- 3&#45;&gt;2 -->
<g id="edge5" class="edge"><title>3&#45;&gt;2</title>
<path fill="none" stroke="grey" stroke-width="2" d="M233.456,-143.697C234.778,-135.983 236.368,-126.712 237.842,-118.112"/>
<polygon fill="grey" stroke="grey" stroke-width="2" points="241.318,-118.552 239.558,-108.104 234.418,-117.369 241.318,-118.552"/>
</g>
<!-- 4 -->
<g id="node5" class="node"><title>4</title>
<path fill="none" stroke="#d85656" stroke-width="2" d="M125.512,-180C125.512,-180 39.4672,-180 39.4672,-180 33.4672,-180 27.4672,-174 27.4672,-168 27.4672,-168 27.4672,-156 27.4672,-156 27.4672,-150 33.4672,-144 39.4672,-144 39.4672,-144 125.512,-144 125.512,-144 131.512,-144 137.512,-150 137.512,-156 137.512,-156 137.512,-168 137.512,-168 137.512,-174 131.512,-180 125.512,-180"/>
<text text-anchor="middle" x="82.4897" y="-159" font-family="sans" font-size="10.00">plot_sequence_logos</text>
</g>
<!-- 4&#45;&gt;1 -->
<g id="edge3" class="edge"><title>4&#45;&gt;1</title>
<path fill="none" stroke="grey" stroke-width="2" d="M82.4897,-143.697C82.4897,-135.983 82.4897,-126.712 82.4897,-118.112"/>
<polygon fill="grey" stroke="grey" stroke-width="2" points="85.9898,-118.104 82.4897,-108.104 78.9898,-118.104 85.9898,-118.104"/>
</g>
<!-- 5 -->
<g id="node6" class="node"><title>5</title>
<path fill="none" stroke="#97d856" stroke-width="2" d="M274.096,-252C274.096,-252 186.884,-252 186.884,-252 180.884,-252 174.884,-246 174.884,-240 174.884,-240 174.884,-228 174.884,-228 174.884,-222 180.884,-216 186.884,-216 186.884,-216 274.096,-216 274.096,-216 280.096,-216 286.096,-222 286.096,-228 286.096,-228 286.096,-240 286.096,-240 286.096,-246 280.096,-252 274.096,-252"/>
<text text-anchor="middle" x="230.49" y="-231" font-family="sans" font-size="10.00">run_MotEvo_analysis</text>
</g>
<!-- 5&#45;&gt;3 -->
<g id="edge6" class="edge"><title>5&#45;&gt;3</title>
<path fill="none" stroke="grey" stroke-width="2" d="M230.49,-215.697C230.49,-207.983 230.49,-198.712 230.49,-190.112"/>
<polygon fill="grey" stroke="grey" stroke-width="2" points="233.99,-190.104 230.49,-180.104 226.99,-190.104 233.99,-190.104"/>
</g>
<!-- 6 -->
<g id="node7" class="node"><title>6</title>
<path fill="none" stroke="#d6d856" stroke-width="2" d="M207.558,-324C207.558,-324 85.4214,-324 85.4214,-324 79.4214,-324 73.4214,-318 73.4214,-312 73.4214,-312 73.4214,-300 73.4214,-300 73.4214,-294 79.4214,-288 85.4214,-288 85.4214,-288 207.558,-288 207.558,-288 213.558,-288 219.558,-294 219.558,-300 219.558,-300 219.558,-312 219.558,-312 219.558,-318 213.558,-324 207.558,-324"/>
<text text-anchor="middle" x="146.49" y="-303" font-family="sans" font-size="10.00">prepare_MotEvo_parameters</text>
</g>
<!-- 6&#45;&gt;5 -->
<g id="edge7" class="edge"><title>6&#45;&gt;5</title>
<path fill="none" stroke="grey" stroke-width="2" d="M167.254,-287.697C177.731,-278.965 190.601,-268.24 201.989,-258.75"/>
<polygon fill="grey" stroke="grey" stroke-width="2" points="204.523,-261.195 209.965,-252.104 200.042,-255.817 204.523,-261.195"/>
</g>
<!-- 7 -->
<g id="node8" class="node"><title>7</title>
<path fill="none" stroke="#569ad8" stroke-width="2" d="M381.583,-324C381.583,-324 249.397,-324 249.397,-324 243.397,-324 237.397,-318 237.397,-312 237.397,-312 237.397,-300 237.397,-300 237.397,-294 243.397,-288 249.397,-288 249.397,-288 381.583,-288 381.583,-288 387.583,-288 393.583,-294 393.583,-300 393.583,-300 393.583,-312 393.583,-312 393.583,-318 387.583,-324 381.583,-324"/>
<text text-anchor="middle" x="315.49" y="-303" font-family="sans" font-size="10.00">prepare_sequence_for_MotEvo</text>
</g>
<!-- 7&#45;&gt;5 -->
<g id="edge8" class="edge"><title>7&#45;&gt;5</title>
<path fill="none" stroke="grey" stroke-width="2" d="M294.479,-287.697C283.773,-278.881 270.6,-268.032 258.994,-258.474"/>
<polygon fill="grey" stroke="grey" stroke-width="2" points="261.204,-255.76 251.259,-252.104 256.754,-261.163 261.204,-255.76"/>
</g>
</g>
</svg>
