<?xml version="1.0" encoding="UTF-8" standalone="no"?>
<!DOCTYPE svg PUBLIC "-//W3C//DTD SVG 1.1//EN"
 "http://www.w3.org/Graphics/SVG/1.1/DTD/svg11.dtd">
<!-- Generated by graphviz version 2.38.0 (20140413.2041)
 -->
<!-- Title: snakemake_dag Pages: 1 -->
<svg width="403pt" height="404pt"
 viewBox="0.00 0.00 403.00 404.00" xmlns="http://www.w3.org/2000/svg" xmlns:xlink="http://www.w3.org/1999/xlink">
<g id="graph0" class="graph" transform="scale(1 1) rotate(0) translate(4 400)">
<title>snakemake_dag</title>
<polygon fill="white" stroke="none" points="-4,4 -4,-400 399,-400 399,4 -4,4"/>
<!-- 0 -->
<g id="node1" class="node"><title>0</title>
<path fill="none" stroke="#d6d856" stroke-width="2" d="M266.5,-36C266.5,-36 236.5,-36 236.5,-36 230.5,-36 224.5,-30 224.5,-24 224.5,-24 224.5,-12 224.5,-12 224.5,-6 230.5,-0 236.5,-0 236.5,-0 266.5,-0 266.5,-0 272.5,-0 278.5,-6 278.5,-12 278.5,-12 278.5,-24 278.5,-24 278.5,-30 272.5,-36 266.5,-36"/>
<text text-anchor="middle" x="251.5" y="-15.5" font-family="sans" font-size="10.00">all</text>
</g>
<!-- 1 -->
<g id="node2" class="node"><title>1</title>
<path fill="none" stroke="#97d856" stroke-width="2" d="M246,-108C246,-108 91,-108 91,-108 85,-108 79,-102 79,-96 79,-96 79,-84 79,-84 79,-78 85,-72 91,-72 91,-72 246,-72 246,-72 252,-72 258,-78 258,-84 258,-84 258,-96 258,-96 258,-102 252,-108 246,-108"/>
<text text-anchor="middle" x="168.5" y="-87.5" font-family="sans" font-size="10.00">plot_heatmap_of_MotEvo_results</text>
</g>
<!-- 1&#45;&gt;0 -->
<g id="edge1" class="edge"><title>1&#45;&gt;0</title>
<path fill="none" stroke="grey" stroke-width="2" d="M189.017,-71.6966C199.369,-62.9655 212.086,-52.2405 223.339,-42.7503"/>
<polygon fill="grey" stroke="grey" stroke-width="2" points="225.831,-45.2269 231.219,-36.1043 221.318,-39.8759 225.831,-45.2269"/>
</g>
<!-- 2 -->
<g id="node3" class="node"><title>2</title>
<path fill="none" stroke="#59d856" stroke-width="2" d="M383,-108C383,-108 288,-108 288,-108 282,-108 276,-102 276,-96 276,-96 276,-84 276,-84 276,-78 282,-72 288,-72 288,-72 383,-72 383,-72 389,-72 395,-78 395,-84 395,-84 395,-96 395,-96 395,-102 389,-108 383,-108"/>
<text text-anchor="middle" x="335.5" y="-87.5" font-family="sans" font-size="10.00">plot_sequence_logos</text>
</g>
<!-- 2&#45;&gt;0 -->
<g id="edge2" class="edge"><title>2&#45;&gt;0</title>
<path fill="none" stroke="grey" stroke-width="2" d="M314.736,-71.6966C304.259,-62.9655 291.389,-52.2405 280,-42.7503"/>
<polygon fill="grey" stroke="grey" stroke-width="2" points="281.948,-39.8174 272.025,-36.1043 277.467,-45.195 281.948,-39.8174"/>
</g>
<!-- 3 -->
<g id="node4" class="node"><title>3</title>
<path fill="none" stroke="#d85656" stroke-width="2" d="M225.5,-180C225.5,-180 111.5,-180 111.5,-180 105.5,-180 99.5,-174 99.5,-168 99.5,-168 99.5,-156 99.5,-156 99.5,-150 105.5,-144 111.5,-144 111.5,-144 225.5,-144 225.5,-144 231.5,-144 237.5,-150 237.5,-156 237.5,-156 237.5,-168 237.5,-168 237.5,-174 231.5,-180 225.5,-180"/>
<text text-anchor="middle" x="168.5" y="-159.5" font-family="sans" font-size="10.00">combine_MotEvo_results</text>
</g>
<!-- 3&#45;&gt;1 -->
<g id="edge3" class="edge"><title>3&#45;&gt;1</title>
<path fill="none" stroke="grey" stroke-width="2" d="M168.5,-143.697C168.5,-135.983 168.5,-126.712 168.5,-118.112"/>
<polygon fill="grey" stroke="grey" stroke-width="2" points="172,-118.104 168.5,-108.104 165,-118.104 172,-118.104"/>
</g>
<!-- 4 -->
<g id="node5" class="node"><title>4</title>
<path fill="none" stroke="#56d89a" stroke-width="2" d="M216,-252C216,-252 121,-252 121,-252 115,-252 109,-246 109,-240 109,-240 109,-228 109,-228 109,-222 115,-216 121,-216 121,-216 216,-216 216,-216 222,-216 228,-222 228,-228 228,-228 228,-240 228,-240 228,-246 222,-252 216,-252"/>
<text text-anchor="middle" x="168.5" y="-231.5" font-family="sans" font-size="10.00">run_MotEvo_analysis</text>
</g>
<!-- 4&#45;&gt;3 -->
<g id="edge4" class="edge"><title>4&#45;&gt;3</title>
<path fill="none" stroke="grey" stroke-width="2" d="M168.5,-215.697C168.5,-207.983 168.5,-198.712 168.5,-190.112"/>
<polygon fill="grey" stroke="grey" stroke-width="2" points="172,-190.104 168.5,-180.104 165,-190.104 172,-190.104"/>
</g>
<!-- 5 -->
<g id="node6" class="node"><title>5</title>
<path fill="none" stroke="#569ad8" stroke-width="2" d="M145,-324C145,-324 12,-324 12,-324 6,-324 0,-318 0,-312 0,-312 0,-300 0,-300 0,-294 6,-288 12,-288 12,-288 145,-288 145,-288 151,-288 157,-294 157,-300 157,-300 157,-312 157,-312 157,-318 151,-324 145,-324"/>
<text text-anchor="middle" x="78.5" y="-303.5" font-family="sans" font-size="10.00">prepare_MotEvo_parameters</text>
</g>
<!-- 5&#45;&gt;4 -->
<g id="edge6" class="edge"><title>5&#45;&gt;4</title>
<path fill="none" stroke="grey" stroke-width="2" d="M100.747,-287.697C112.082,-278.881 126.03,-268.032 138.319,-258.474"/>
<polygon fill="grey" stroke="grey" stroke-width="2" points="140.764,-261.007 146.509,-252.104 136.466,-255.481 140.764,-261.007"/>
</g>
<!-- 6 -->
<g id="node7" class="node"><title>6</title>
<path fill="none" stroke="#d89556" stroke-width="2" d="M329.5,-324C329.5,-324 187.5,-324 187.5,-324 181.5,-324 175.5,-318 175.5,-312 175.5,-312 175.5,-300 175.5,-300 175.5,-294 181.5,-288 187.5,-288 187.5,-288 329.5,-288 329.5,-288 335.5,-288 341.5,-294 341.5,-300 341.5,-300 341.5,-312 341.5,-312 341.5,-318 335.5,-324 329.5,-324"/>
<text text-anchor="middle" x="258.5" y="-303.5" font-family="sans" font-size="10.00">prepare_sequence_for_MotEvo</text>
</g>
<!-- 6&#45;&gt;4 -->
<g id="edge5" class="edge"><title>6&#45;&gt;4</title>
<path fill="none" stroke="grey" stroke-width="2" d="M236.253,-287.697C224.918,-278.881 210.97,-268.032 198.681,-258.474"/>
<polygon fill="grey" stroke="grey" stroke-width="2" points="200.534,-255.481 190.491,-252.104 196.236,-261.007 200.534,-255.481"/>
</g>
<!-- 7 -->
<g id="node8" class="node"><title>7</title>
<path fill="none" stroke="#56d8d8" stroke-width="2" d="M223.5,-396C223.5,-396 113.5,-396 113.5,-396 107.5,-396 101.5,-390 101.5,-384 101.5,-384 101.5,-372 101.5,-372 101.5,-366 107.5,-360 113.5,-360 113.5,-360 223.5,-360 223.5,-360 229.5,-360 235.5,-366 235.5,-372 235.5,-372 235.5,-384 235.5,-384 235.5,-390 229.5,-396 223.5,-396"/>
<text text-anchor="middle" x="168.5" y="-375.5" font-family="sans" font-size="10.00">create_results_directory</text>
</g>
<!-- 7&#45;&gt;5 -->
<g id="edge7" class="edge"><title>7&#45;&gt;5</title>
<path fill="none" stroke="grey" stroke-width="2" d="M146.253,-359.697C134.918,-350.881 120.97,-340.032 108.681,-330.474"/>
<polygon fill="grey" stroke="grey" stroke-width="2" points="110.534,-327.481 100.491,-324.104 106.236,-333.007 110.534,-327.481"/>
</g>
<!-- 7&#45;&gt;6 -->
<g id="edge8" class="edge"><title>7&#45;&gt;6</title>
<path fill="none" stroke="grey" stroke-width="2" d="M190.747,-359.697C202.082,-350.881 216.03,-340.032 228.319,-330.474"/>
<polygon fill="grey" stroke="grey" stroke-width="2" points="230.764,-333.007 236.509,-324.104 226.466,-327.481 230.764,-333.007"/>
</g>
</g>
</svg>
