<?xml version="1.0" encoding="UTF-8" standalone="no"?>
<!DOCTYPE svg PUBLIC "-//W3C//DTD SVG 1.1//EN"
 "http://www.w3.org/Graphics/SVG/1.1/DTD/svg11.dtd">
<!-- Generated by graphviz version 2.38.0 (20140413.2041)
 -->
<!-- Title: snakemake_dag Pages: 1 -->
<svg width="438pt" height="404pt"
 viewBox="0.00 0.00 437.50 404.00" xmlns="http://www.w3.org/2000/svg" xmlns:xlink="http://www.w3.org/1999/xlink">
<g id="graph0" class="graph" transform="scale(1 1) rotate(0) translate(4 400)">
<title>snakemake_dag</title>
<polygon fill="white" stroke="none" points="-4,4 -4,-400 433.5,-400 433.5,4 -4,4"/>
<!-- 0 -->
<g id="node1" class="node"><title>0</title>
<path fill="none" stroke="#56d8d8" stroke-width="2" d="M143.5,-36C143.5,-36 113.5,-36 113.5,-36 107.5,-36 101.5,-30 101.5,-24 101.5,-24 101.5,-12 101.5,-12 101.5,-6 107.5,-0 113.5,-0 113.5,-0 143.5,-0 143.5,-0 149.5,-0 155.5,-6 155.5,-12 155.5,-12 155.5,-24 155.5,-24 155.5,-30 149.5,-36 143.5,-36"/>
<text text-anchor="middle" x="128.5" y="-15.5" font-family="sans" font-size="10.00">all</text>
</g>
<!-- 1 -->
<g id="node2" class="node"><title>1</title>
<path fill="none" stroke="#56d89a" stroke-width="2" d="M266,-108C266,-108 111,-108 111,-108 105,-108 99,-102 99,-96 99,-96 99,-84 99,-84 99,-78 105,-72 111,-72 111,-72 266,-72 266,-72 272,-72 278,-78 278,-84 278,-84 278,-96 278,-96 278,-102 272,-108 266,-108"/>
<text text-anchor="middle" x="188.5" y="-87.5" font-family="sans" font-size="10.00">plot_heatmap_of_MotEvo_results</text>
</g>
<!-- 1&#45;&gt;0 -->
<g id="edge1" class="edge"><title>1&#45;&gt;0</title>
<path fill="none" stroke="grey" stroke-width="2" d="M173.669,-71.6966C166.475,-63.3046 157.703,-53.0705 149.81,-43.8613"/>
<polygon fill="grey" stroke="grey" stroke-width="2" points="152.326,-41.4191 143.161,-36.1043 147.011,-45.9747 152.326,-41.4191"/>
</g>
<!-- 2 -->
<g id="node3" class="node"><title>2</title>
<path fill="none" stroke="#59d856" stroke-width="2" d="M107,-252C107,-252 12,-252 12,-252 6,-252 0,-246 0,-240 0,-240 0,-228 0,-228 0,-222 6,-216 12,-216 12,-216 107,-216 107,-216 113,-216 119,-222 119,-228 119,-228 119,-240 119,-240 119,-246 113,-252 107,-252"/>
<text text-anchor="middle" x="59.5" y="-231.5" font-family="sans" font-size="10.00">plot_sequence_logos</text>
</g>
<!-- 2&#45;&gt;0 -->
<g id="edge2" class="edge"><title>2&#45;&gt;0</title>
<path fill="none" stroke="grey" stroke-width="2" d="M60.1945,-215.819C61.9541,-185.559 68.1141,-121.299 89.5,-72 93.7282,-62.2532 100.031,-52.5935 106.344,-44.2439"/>
<polygon fill="grey" stroke="grey" stroke-width="2" points="109.112,-46.3864 112.583,-36.3763 103.627,-42.0369 109.112,-46.3864"/>
</g>
<!-- 3 -->
<g id="node4" class="node"><title>3</title>
<path fill="none" stroke="#97d856" stroke-width="2" d="M250.5,-180C250.5,-180 136.5,-180 136.5,-180 130.5,-180 124.5,-174 124.5,-168 124.5,-168 124.5,-156 124.5,-156 124.5,-150 130.5,-144 136.5,-144 136.5,-144 250.5,-144 250.5,-144 256.5,-144 262.5,-150 262.5,-156 262.5,-156 262.5,-168 262.5,-168 262.5,-174 256.5,-180 250.5,-180"/>
<text text-anchor="middle" x="193.5" y="-159.5" font-family="sans" font-size="10.00">combine_MotEvo_results</text>
</g>
<!-- 3&#45;&gt;1 -->
<g id="edge3" class="edge"><title>3&#45;&gt;1</title>
<path fill="none" stroke="grey" stroke-width="2" d="M192.264,-143.697C191.713,-135.983 191.051,-126.712 190.437,-118.112"/>
<polygon fill="grey" stroke="grey" stroke-width="2" points="193.925,-117.83 189.722,-108.104 186.943,-118.328 193.925,-117.83"/>
</g>
<!-- 4 -->
<g id="node5" class="node"><title>4</title>
<path fill="none" stroke="#d89556" stroke-width="2" d="M221.5,-396C221.5,-396 111.5,-396 111.5,-396 105.5,-396 99.5,-390 99.5,-384 99.5,-384 99.5,-372 99.5,-372 99.5,-366 105.5,-360 111.5,-360 111.5,-360 221.5,-360 221.5,-360 227.5,-360 233.5,-366 233.5,-372 233.5,-372 233.5,-384 233.5,-384 233.5,-390 227.5,-396 221.5,-396"/>
<text text-anchor="middle" x="166.5" y="-375.5" font-family="sans" font-size="10.00">create_results_directory</text>
</g>
<!-- 4&#45;&gt;2 -->
<g id="edge4" class="edge"><title>4&#45;&gt;2</title>
<path fill="none" stroke="grey" stroke-width="2" d="M123.03,-359.827C106.772,-351.345 89.5805,-339.537 78.5,-324 65.6333,-305.959 61.162,-280.972 59.7491,-262.065"/>
<polygon fill="grey" stroke="grey" stroke-width="2" points="63.2409,-261.812 59.2375,-252.002 56.2499,-262.167 63.2409,-261.812"/>
</g>
<!-- 6 -->
<g id="node7" class="node"><title>6</title>
<path fill="none" stroke="#569ad8" stroke-width="2" d="M233,-324C233,-324 100,-324 100,-324 94,-324 88,-318 88,-312 88,-312 88,-300 88,-300 88,-294 94,-288 100,-288 100,-288 233,-288 233,-288 239,-288 245,-294 245,-300 245,-300 245,-312 245,-312 245,-318 239,-324 233,-324"/>
<text text-anchor="middle" x="166.5" y="-303.5" font-family="sans" font-size="10.00">prepare_MotEvo_parameters</text>
</g>
<!-- 4&#45;&gt;6 -->
<g id="edge8" class="edge"><title>4&#45;&gt;6</title>
<path fill="none" stroke="grey" stroke-width="2" d="M166.5,-359.697C166.5,-351.983 166.5,-342.712 166.5,-334.112"/>
<polygon fill="grey" stroke="grey" stroke-width="2" points="170,-334.104 166.5,-324.104 163,-334.104 170,-334.104"/>
</g>
<!-- 7 -->
<g id="node8" class="node"><title>7</title>
<path fill="none" stroke="#d85656" stroke-width="2" d="M417.5,-324C417.5,-324 275.5,-324 275.5,-324 269.5,-324 263.5,-318 263.5,-312 263.5,-312 263.5,-300 263.5,-300 263.5,-294 269.5,-288 275.5,-288 275.5,-288 417.5,-288 417.5,-288 423.5,-288 429.5,-294 429.5,-300 429.5,-300 429.5,-312 429.5,-312 429.5,-318 423.5,-324 417.5,-324"/>
<text text-anchor="middle" x="346.5" y="-303.5" font-family="sans" font-size="10.00">prepare_sequence_for_MotEvo</text>
</g>
<!-- 4&#45;&gt;7 -->
<g id="edge9" class="edge"><title>4&#45;&gt;7</title>
<path fill="none" stroke="grey" stroke-width="2" d="M210.533,-359.876C235.468,-350.179 266.838,-337.98 293.162,-327.743"/>
<polygon fill="grey" stroke="grey" stroke-width="2" points="294.559,-330.955 302.61,-324.068 292.021,-324.431 294.559,-330.955"/>
</g>
<!-- 5 -->
<g id="node6" class="node"><title>5</title>
<path fill="none" stroke="#d6d856" stroke-width="2" d="M244,-252C244,-252 149,-252 149,-252 143,-252 137,-246 137,-240 137,-240 137,-228 137,-228 137,-222 143,-216 149,-216 149,-216 244,-216 244,-216 250,-216 256,-222 256,-228 256,-228 256,-240 256,-240 256,-246 250,-252 244,-252"/>
<text text-anchor="middle" x="196.5" y="-231.5" font-family="sans" font-size="10.00">run_MotEvo_analysis</text>
</g>
<!-- 5&#45;&gt;3 -->
<g id="edge5" class="edge"><title>5&#45;&gt;3</title>
<path fill="none" stroke="grey" stroke-width="2" d="M195.758,-215.697C195.428,-207.983 195.031,-198.712 194.662,-190.112"/>
<polygon fill="grey" stroke="grey" stroke-width="2" points="198.158,-189.945 194.233,-180.104 191.165,-190.245 198.158,-189.945"/>
</g>
<!-- 6&#45;&gt;5 -->
<g id="edge7" class="edge"><title>6&#45;&gt;5</title>
<path fill="none" stroke="grey" stroke-width="2" d="M173.916,-287.697C177.294,-279.813 181.37,-270.304 185.123,-261.546"/>
<polygon fill="grey" stroke="grey" stroke-width="2" points="188.447,-262.675 189.17,-252.104 182.013,-259.917 188.447,-262.675"/>
</g>
<!-- 7&#45;&gt;5 -->
<g id="edge6" class="edge"><title>7&#45;&gt;5</title>
<path fill="none" stroke="grey" stroke-width="2" d="M309.806,-287.876C289.482,-278.392 264.029,-266.513 242.398,-256.419"/>
<polygon fill="grey" stroke="grey" stroke-width="2" points="243.617,-253.126 233.075,-252.068 240.657,-259.469 243.617,-253.126"/>
</g>
</g>
</svg>
