<?xml version="1.0" encoding="UTF-8" standalone="no"?>
<!DOCTYPE svg PUBLIC "-//W3C//DTD SVG 1.1//EN"
 "http://www.w3.org/Graphics/SVG/1.1/DTD/svg11.dtd">
<!-- Generated by graphviz version 2.38.0 (20140413.2041)
 -->
<!-- Title: snakemake_dag Pages: 1 -->
<svg width="328pt" height="332pt"
 viewBox="0.00 0.00 328.08 332.00" xmlns="http://www.w3.org/2000/svg" xmlns:xlink="http://www.w3.org/1999/xlink">
<g id="graph0" class="graph" transform="scale(1 1) rotate(0) translate(4 328)">
<title>snakemake_dag</title>
<polygon fill="white" stroke="none" points="-4,4 -4,-328 324.081,-328 324.081,4 -4,4"/>
<!-- 0 -->
<g id="node1" class="node"><title>0</title>
<path fill="none" stroke="#d8ac56" stroke-width="2" d="M172.034,-36C172.034,-36 142.034,-36 142.034,-36 136.034,-36 130.034,-30 130.034,-24 130.034,-24 130.034,-12 130.034,-12 130.034,-6 136.034,-0 142.034,-0 142.034,-0 172.034,-0 172.034,-0 178.034,-0 184.034,-6 184.034,-12 184.034,-12 184.034,-24 184.034,-24 184.034,-30 178.034,-36 172.034,-36"/>
<text text-anchor="middle" x="157.034" y="-15" font-family="sans" font-size="10.00">all</text>
</g>
<!-- 1 -->
<g id="node2" class="node"><title>1</title>
<path fill="none" stroke="#56d8a9" stroke-width="2" d="M227.514,-108C227.514,-108 86.5547,-108 86.5547,-108 80.5547,-108 74.5547,-102 74.5547,-96 74.5547,-96 74.5547,-84 74.5547,-84 74.5547,-78 80.5547,-72 86.5547,-72 86.5547,-72 227.514,-72 227.514,-72 233.514,-72 239.514,-78 239.514,-84 239.514,-84 239.514,-96 239.514,-96 239.514,-102 233.514,-108 227.514,-108"/>
<text text-anchor="middle" x="157.034" y="-87" font-family="sans" font-size="10.00">plot_heatmap_of_MotEvo_results</text>
</g>
<!-- 1&#45;&gt;0 -->
<g id="edge1" class="edge"><title>1&#45;&gt;0</title>
<path fill="none" stroke="grey" stroke-width="2" d="M157.034,-71.6966C157.034,-63.9827 157.034,-54.7125 157.034,-46.1124"/>
<polygon fill="grey" stroke="grey" stroke-width="2" points="160.534,-46.1043 157.034,-36.1043 153.534,-46.1044 160.534,-46.1043"/>
</g>
<!-- 2 -->
<g id="node3" class="node"><title>2</title>
<path fill="none" stroke="#d85656" stroke-width="2" d="M209.31,-180C209.31,-180 104.758,-180 104.758,-180 98.7585,-180 92.7585,-174 92.7585,-168 92.7585,-168 92.7585,-156 92.7585,-156 92.7585,-150 98.7585,-144 104.758,-144 104.758,-144 209.31,-144 209.31,-144 215.31,-144 221.31,-150 221.31,-156 221.31,-156 221.31,-168 221.31,-168 221.31,-174 215.31,-180 209.31,-180"/>
<text text-anchor="middle" x="157.034" y="-159" font-family="sans" font-size="10.00">combine_MotEvo_results</text>
</g>
<!-- 2&#45;&gt;1 -->
<g id="edge2" class="edge"><title>2&#45;&gt;1</title>
<path fill="none" stroke="grey" stroke-width="2" d="M157.034,-143.697C157.034,-135.983 157.034,-126.712 157.034,-118.112"/>
<polygon fill="grey" stroke="grey" stroke-width="2" points="160.534,-118.104 157.034,-108.104 153.534,-118.104 160.534,-118.104"/>
</g>
<!-- 3 -->
<g id="node4" class="node"><title>3</title>
<path fill="none" stroke="#56a9d8" stroke-width="2" d="M200.64,-252C200.64,-252 113.428,-252 113.428,-252 107.428,-252 101.428,-246 101.428,-240 101.428,-240 101.428,-228 101.428,-228 101.428,-222 107.428,-216 113.428,-216 113.428,-216 200.64,-216 200.64,-216 206.64,-216 212.64,-222 212.64,-228 212.64,-228 212.64,-240 212.64,-240 212.64,-246 206.64,-252 200.64,-252"/>
<text text-anchor="middle" x="157.034" y="-231" font-family="sans" font-size="10.00">run_MotEvo_analysis</text>
</g>
<!-- 3&#45;&gt;2 -->
<g id="edge3" class="edge"><title>3&#45;&gt;2</title>
<path fill="none" stroke="grey" stroke-width="2" d="M157.034,-215.697C157.034,-207.983 157.034,-198.712 157.034,-190.112"/>
<polygon fill="grey" stroke="grey" stroke-width="2" points="160.534,-190.104 157.034,-180.104 153.534,-190.104 160.534,-190.104"/>
</g>
<!-- 4 -->
<g id="node5" class="node"><title>4</title>
<path fill="none" stroke="#59d856" stroke-width="2" d="M134.103,-324C134.103,-324 11.9658,-324 11.9658,-324 5.9658,-324 -0.0341957,-318 -0.0341957,-312 -0.0341957,-312 -0.0341957,-300 -0.0341957,-300 -0.0341957,-294 5.9658,-288 11.9658,-288 11.9658,-288 134.103,-288 134.103,-288 140.103,-288 146.103,-294 146.103,-300 146.103,-300 146.103,-312 146.103,-312 146.103,-318 140.103,-324 134.103,-324"/>
<text text-anchor="middle" x="73.0342" y="-303" font-family="sans" font-size="10.00">prepare_MotEvo_parameters</text>
</g>
<!-- 4&#45;&gt;3 -->
<g id="edge4" class="edge"><title>4&#45;&gt;3</title>
<path fill="none" stroke="grey" stroke-width="2" d="M93.7982,-287.697C104.276,-278.965 117.146,-268.24 128.534,-258.75"/>
<polygon fill="grey" stroke="grey" stroke-width="2" points="131.067,-261.195 136.509,-252.104 126.586,-255.817 131.067,-261.195"/>
</g>
<!-- 5 -->
<g id="node6" class="node"><title>5</title>
<path fill="none" stroke="#afd856" stroke-width="2" d="M308.127,-324C308.127,-324 175.941,-324 175.941,-324 169.941,-324 163.941,-318 163.941,-312 163.941,-312 163.941,-300 163.941,-300 163.941,-294 169.941,-288 175.941,-288 175.941,-288 308.127,-288 308.127,-288 314.127,-288 320.127,-294 320.127,-300 320.127,-300 320.127,-312 320.127,-312 320.127,-318 314.127,-324 308.127,-324"/>
<text text-anchor="middle" x="242.034" y="-303" font-family="sans" font-size="10.00">prepare_sequence_for_MotEvo</text>
</g>
<!-- 5&#45;&gt;3 -->
<g id="edge5" class="edge"><title>5&#45;&gt;3</title>
<path fill="none" stroke="grey" stroke-width="2" d="M221.023,-287.697C210.318,-278.881 197.145,-268.032 185.539,-258.474"/>
<polygon fill="grey" stroke="grey" stroke-width="2" points="187.748,-255.76 177.804,-252.104 183.298,-261.163 187.748,-255.76"/>
</g>
</g>
</svg>
