<?xml version="1.0" encoding="UTF-8" standalone="no"?>
<!DOCTYPE svg PUBLIC "-//W3C//DTD SVG 1.1//EN"
 "http://www.w3.org/Graphics/SVG/1.1/DTD/svg11.dtd">
<!-- Generated by graphviz version 2.38.0 (20140413.2041)
 -->
<!-- Title: snakemake_dag Pages: 1 -->
<svg width="350pt" height="332pt"
 viewBox="0.00 0.00 349.50 332.00" xmlns="http://www.w3.org/2000/svg" xmlns:xlink="http://www.w3.org/1999/xlink">
<g id="graph0" class="graph" transform="scale(1 1) rotate(0) translate(4 328)">
<title>snakemake_dag</title>
<polygon fill="white" stroke="none" points="-4,4 -4,-328 345.5,-328 345.5,4 -4,4"/>
<!-- 0 -->
<g id="node1" class="node"><title>0</title>
<path fill="none" stroke="#d8ac56" stroke-width="2" d="M183.5,-36C183.5,-36 153.5,-36 153.5,-36 147.5,-36 141.5,-30 141.5,-24 141.5,-24 141.5,-12 141.5,-12 141.5,-6 147.5,-0 153.5,-0 153.5,-0 183.5,-0 183.5,-0 189.5,-0 195.5,-6 195.5,-12 195.5,-12 195.5,-24 195.5,-24 195.5,-30 189.5,-36 183.5,-36"/>
<text text-anchor="middle" x="168.5" y="-15.5" font-family="sans" font-size="10.00">all</text>
</g>
<!-- 1 -->
<g id="node2" class="node"><title>1</title>
<path fill="none" stroke="#56d8a9" stroke-width="2" d="M225.5,-108C225.5,-108 111.5,-108 111.5,-108 105.5,-108 99.5,-102 99.5,-96 99.5,-96 99.5,-84 99.5,-84 99.5,-78 105.5,-72 111.5,-72 111.5,-72 225.5,-72 225.5,-72 231.5,-72 237.5,-78 237.5,-84 237.5,-84 237.5,-96 237.5,-96 237.5,-102 231.5,-108 225.5,-108"/>
<text text-anchor="middle" x="168.5" y="-87.5" font-family="sans" font-size="10.00">combine_MotEvo_results</text>
</g>
<!-- 1&#45;&gt;0 -->
<g id="edge1" class="edge"><title>1&#45;&gt;0</title>
<path fill="none" stroke="grey" stroke-width="2" d="M168.5,-71.6966C168.5,-63.9827 168.5,-54.7125 168.5,-46.1124"/>
<polygon fill="grey" stroke="grey" stroke-width="2" points="172,-46.1043 168.5,-36.1043 165,-46.1044 172,-46.1043"/>
</g>
<!-- 2 -->
<g id="node3" class="node"><title>2</title>
<path fill="none" stroke="#59d856" stroke-width="2" d="M216,-180C216,-180 121,-180 121,-180 115,-180 109,-174 109,-168 109,-168 109,-156 109,-156 109,-150 115,-144 121,-144 121,-144 216,-144 216,-144 222,-144 228,-150 228,-156 228,-156 228,-168 228,-168 228,-174 222,-180 216,-180"/>
<text text-anchor="middle" x="168.5" y="-159.5" font-family="sans" font-size="10.00">run_MotEvo_analysis</text>
</g>
<!-- 2&#45;&gt;1 -->
<g id="edge2" class="edge"><title>2&#45;&gt;1</title>
<path fill="none" stroke="grey" stroke-width="2" d="M168.5,-143.697C168.5,-135.983 168.5,-126.712 168.5,-118.112"/>
<polygon fill="grey" stroke="grey" stroke-width="2" points="172,-118.104 168.5,-108.104 165,-118.104 172,-118.104"/>
</g>
<!-- 3 -->
<g id="node4" class="node"><title>3</title>
<path fill="none" stroke="#56a9d8" stroke-width="2" d="M145,-252C145,-252 12,-252 12,-252 6,-252 0,-246 0,-240 0,-240 0,-228 0,-228 0,-222 6,-216 12,-216 12,-216 145,-216 145,-216 151,-216 157,-222 157,-228 157,-228 157,-240 157,-240 157,-246 151,-252 145,-252"/>
<text text-anchor="middle" x="78.5" y="-231.5" font-family="sans" font-size="10.00">prepare_MotEvo_parameters</text>
</g>
<!-- 3&#45;&gt;2 -->
<g id="edge4" class="edge"><title>3&#45;&gt;2</title>
<path fill="none" stroke="grey" stroke-width="2" d="M100.747,-215.697C112.082,-206.881 126.03,-196.032 138.319,-186.474"/>
<polygon fill="grey" stroke="grey" stroke-width="2" points="140.764,-189.007 146.509,-180.104 136.466,-183.481 140.764,-189.007"/>
</g>
<!-- 4 -->
<g id="node5" class="node"><title>4</title>
<path fill="none" stroke="#afd856" stroke-width="2" d="M329.5,-252C329.5,-252 187.5,-252 187.5,-252 181.5,-252 175.5,-246 175.5,-240 175.5,-240 175.5,-228 175.5,-228 175.5,-222 181.5,-216 187.5,-216 187.5,-216 329.5,-216 329.5,-216 335.5,-216 341.5,-222 341.5,-228 341.5,-228 341.5,-240 341.5,-240 341.5,-246 335.5,-252 329.5,-252"/>
<text text-anchor="middle" x="258.5" y="-231.5" font-family="sans" font-size="10.00">prepare_sequence_for_MotEvo</text>
</g>
<!-- 4&#45;&gt;2 -->
<g id="edge3" class="edge"><title>4&#45;&gt;2</title>
<path fill="none" stroke="grey" stroke-width="2" d="M236.253,-215.697C224.918,-206.881 210.97,-196.032 198.681,-186.474"/>
<polygon fill="grey" stroke="grey" stroke-width="2" points="200.534,-183.481 190.491,-180.104 196.236,-189.007 200.534,-183.481"/>
</g>
<!-- 5 -->
<g id="node6" class="node"><title>5</title>
<path fill="none" stroke="#d85656" stroke-width="2" d="M223.5,-324C223.5,-324 113.5,-324 113.5,-324 107.5,-324 101.5,-318 101.5,-312 101.5,-312 101.5,-300 101.5,-300 101.5,-294 107.5,-288 113.5,-288 113.5,-288 223.5,-288 223.5,-288 229.5,-288 235.5,-294 235.5,-300 235.5,-300 235.5,-312 235.5,-312 235.5,-318 229.5,-324 223.5,-324"/>
<text text-anchor="middle" x="168.5" y="-303.5" font-family="sans" font-size="10.00">create_results_directory</text>
</g>
<!-- 5&#45;&gt;3 -->
<g id="edge5" class="edge"><title>5&#45;&gt;3</title>
<path fill="none" stroke="grey" stroke-width="2" d="M146.253,-287.697C134.918,-278.881 120.97,-268.032 108.681,-258.474"/>
<polygon fill="grey" stroke="grey" stroke-width="2" points="110.534,-255.481 100.491,-252.104 106.236,-261.007 110.534,-255.481"/>
</g>
<!-- 5&#45;&gt;4 -->
<g id="edge6" class="edge"><title>5&#45;&gt;4</title>
<path fill="none" stroke="grey" stroke-width="2" d="M190.747,-287.697C202.082,-278.881 216.03,-268.032 228.319,-258.474"/>
<polygon fill="grey" stroke="grey" stroke-width="2" points="230.764,-261.007 236.509,-252.104 226.466,-255.481 230.764,-261.007"/>
</g>
</g>
</svg>
