<?xml version="1.0" encoding="UTF-8" standalone="no"?>
<!DOCTYPE svg PUBLIC "-//W3C//DTD SVG 1.1//EN"
 "http://www.w3.org/Graphics/SVG/1.1/DTD/svg11.dtd">
<!-- Generated by graphviz version 2.38.0 (20140413.2041)
 -->
<!-- Title: snakemake_dag Pages: 1 -->
<svg width="438pt" height="404pt"
 viewBox="0.00 0.00 437.50 404.00" xmlns="http://www.w3.org/2000/svg" xmlns:xlink="http://www.w3.org/1999/xlink">
<g id="graph0" class="graph" transform="scale(1 1) rotate(0) translate(4 400)">
<title>snakemake_dag</title>
<polygon fill="white" stroke="none" points="-4,4 -4,-400 433.5,-400 433.5,4 -4,4"/>
<!-- 0 -->
<g id="node1" class="node"><title>0</title>
<path fill="none" stroke="#569ad8" stroke-width="2" d="M147.5,-36C147.5,-36 117.5,-36 117.5,-36 111.5,-36 105.5,-30 105.5,-24 105.5,-24 105.5,-12 105.5,-12 105.5,-6 111.5,-0 117.5,-0 117.5,-0 147.5,-0 147.5,-0 153.5,-0 159.5,-6 159.5,-12 159.5,-12 159.5,-24 159.5,-24 159.5,-30 153.5,-36 147.5,-36"/>
<text text-anchor="middle" x="132.5" y="-15.5" font-family="sans" font-size="10.00">all</text>
</g>
<!-- 1 -->
<g id="node2" class="node"><title>1</title>
<path fill="none" stroke="#d85656" stroke-width="2" d="M210,-108C210,-108 55,-108 55,-108 49,-108 43,-102 43,-96 43,-96 43,-84 43,-84 43,-78 49,-72 55,-72 55,-72 210,-72 210,-72 216,-72 222,-78 222,-84 222,-84 222,-96 222,-96 222,-102 216,-108 210,-108"/>
<text text-anchor="middle" x="132.5" y="-87.5" font-family="sans" font-size="10.00">plot_heatmap_of_MotEvo_results</text>
</g>
<!-- 1&#45;&gt;0 -->
<g id="edge1" class="edge"><title>1&#45;&gt;0</title>
<path fill="none" stroke="grey" stroke-width="2" d="M132.5,-71.6966C132.5,-63.9827 132.5,-54.7125 132.5,-46.1124"/>
<polygon fill="grey" stroke="grey" stroke-width="2" points="136,-46.1043 132.5,-36.1043 129,-46.1044 136,-46.1043"/>
</g>
<!-- 2 -->
<g id="node3" class="node"><title>2</title>
<path fill="none" stroke="#59d856" stroke-width="2" d="M243.5,-180C243.5,-180 129.5,-180 129.5,-180 123.5,-180 117.5,-174 117.5,-168 117.5,-168 117.5,-156 117.5,-156 117.5,-150 123.5,-144 129.5,-144 129.5,-144 243.5,-144 243.5,-144 249.5,-144 255.5,-150 255.5,-156 255.5,-156 255.5,-168 255.5,-168 255.5,-174 249.5,-180 243.5,-180"/>
<text text-anchor="middle" x="186.5" y="-159.5" font-family="sans" font-size="10.00">combine_MotEvo_results</text>
</g>
<!-- 2&#45;&gt;1 -->
<g id="edge2" class="edge"><title>2&#45;&gt;1</title>
<path fill="none" stroke="grey" stroke-width="2" d="M173.152,-143.697C166.743,-135.389 158.942,-125.277 151.894,-116.141"/>
<polygon fill="grey" stroke="grey" stroke-width="2" points="154.574,-113.884 145.695,-108.104 149.032,-118.16 154.574,-113.884"/>
</g>
<!-- 3 -->
<g id="node4" class="node"><title>3</title>
<path fill="none" stroke="#56d89a" stroke-width="2" d="M107,-252C107,-252 12,-252 12,-252 6,-252 0,-246 0,-240 0,-240 0,-228 0,-228 0,-222 6,-216 12,-216 12,-216 107,-216 107,-216 113,-216 119,-222 119,-228 119,-228 119,-240 119,-240 119,-246 113,-252 107,-252"/>
<text text-anchor="middle" x="59.5" y="-231.5" font-family="sans" font-size="10.00">plot_sequence_logos</text>
</g>
<!-- 3&#45;&gt;1 -->
<g id="edge3" class="edge"><title>3&#45;&gt;1</title>
<path fill="none" stroke="grey" stroke-width="2" d="M68.3055,-215.871C80.9114,-191.35 104.209,-146.032 119.001,-117.259"/>
<polygon fill="grey" stroke="grey" stroke-width="2" points="122.204,-118.683 123.663,-108.189 115.978,-115.483 122.204,-118.683"/>
</g>
<!-- 4 -->
<g id="node5" class="node"><title>4</title>
<path fill="none" stroke="#97d856" stroke-width="2" d="M244,-252C244,-252 149,-252 149,-252 143,-252 137,-246 137,-240 137,-240 137,-228 137,-228 137,-222 143,-216 149,-216 149,-216 244,-216 244,-216 250,-216 256,-222 256,-228 256,-228 256,-240 256,-240 256,-246 250,-252 244,-252"/>
<text text-anchor="middle" x="196.5" y="-231.5" font-family="sans" font-size="10.00">run_MotEvo_analysis</text>
</g>
<!-- 4&#45;&gt;2 -->
<g id="edge4" class="edge"><title>4&#45;&gt;2</title>
<path fill="none" stroke="grey" stroke-width="2" d="M194.028,-215.697C192.926,-207.983 191.602,-198.712 190.373,-190.112"/>
<polygon fill="grey" stroke="grey" stroke-width="2" points="193.823,-189.509 188.943,-180.104 186.893,-190.499 193.823,-189.509"/>
</g>
<!-- 5 -->
<g id="node6" class="node"><title>5</title>
<path fill="none" stroke="#d6d856" stroke-width="2" d="M221.5,-396C221.5,-396 111.5,-396 111.5,-396 105.5,-396 99.5,-390 99.5,-384 99.5,-384 99.5,-372 99.5,-372 99.5,-366 105.5,-360 111.5,-360 111.5,-360 221.5,-360 221.5,-360 227.5,-360 233.5,-366 233.5,-372 233.5,-372 233.5,-384 233.5,-384 233.5,-390 227.5,-396 221.5,-396"/>
<text text-anchor="middle" x="166.5" y="-375.5" font-family="sans" font-size="10.00">create_results_directory</text>
</g>
<!-- 5&#45;&gt;3 -->
<g id="edge5" class="edge"><title>5&#45;&gt;3</title>
<path fill="none" stroke="grey" stroke-width="2" d="M123.03,-359.827C106.772,-351.345 89.5805,-339.537 78.5,-324 65.6333,-305.959 61.162,-280.972 59.7491,-262.065"/>
<polygon fill="grey" stroke="grey" stroke-width="2" points="63.2409,-261.812 59.2375,-252.002 56.2499,-262.167 63.2409,-261.812"/>
</g>
<!-- 6 -->
<g id="node7" class="node"><title>6</title>
<path fill="none" stroke="#56d8d8" stroke-width="2" d="M233,-324C233,-324 100,-324 100,-324 94,-324 88,-318 88,-312 88,-312 88,-300 88,-300 88,-294 94,-288 100,-288 100,-288 233,-288 233,-288 239,-288 245,-294 245,-300 245,-300 245,-312 245,-312 245,-318 239,-324 233,-324"/>
<text text-anchor="middle" x="166.5" y="-303.5" font-family="sans" font-size="10.00">prepare_MotEvo_parameters</text>
</g>
<!-- 5&#45;&gt;6 -->
<g id="edge8" class="edge"><title>5&#45;&gt;6</title>
<path fill="none" stroke="grey" stroke-width="2" d="M166.5,-359.697C166.5,-351.983 166.5,-342.712 166.5,-334.112"/>
<polygon fill="grey" stroke="grey" stroke-width="2" points="170,-334.104 166.5,-324.104 163,-334.104 170,-334.104"/>
</g>
<!-- 7 -->
<g id="node8" class="node"><title>7</title>
<path fill="none" stroke="#d89556" stroke-width="2" d="M417.5,-324C417.5,-324 275.5,-324 275.5,-324 269.5,-324 263.5,-318 263.5,-312 263.5,-312 263.5,-300 263.5,-300 263.5,-294 269.5,-288 275.5,-288 275.5,-288 417.5,-288 417.5,-288 423.5,-288 429.5,-294 429.5,-300 429.5,-300 429.5,-312 429.5,-312 429.5,-318 423.5,-324 417.5,-324"/>
<text text-anchor="middle" x="346.5" y="-303.5" font-family="sans" font-size="10.00">prepare_sequence_for_MotEvo</text>
</g>
<!-- 5&#45;&gt;7 -->
<g id="edge9" class="edge"><title>5&#45;&gt;7</title>
<path fill="none" stroke="grey" stroke-width="2" d="M210.533,-359.876C235.468,-350.179 266.838,-337.98 293.162,-327.743"/>
<polygon fill="grey" stroke="grey" stroke-width="2" points="294.559,-330.955 302.61,-324.068 292.021,-324.431 294.559,-330.955"/>
</g>
<!-- 6&#45;&gt;4 -->
<g id="edge7" class="edge"><title>6&#45;&gt;4</title>
<path fill="none" stroke="grey" stroke-width="2" d="M173.916,-287.697C177.294,-279.813 181.37,-270.304 185.123,-261.546"/>
<polygon fill="grey" stroke="grey" stroke-width="2" points="188.447,-262.675 189.17,-252.104 182.013,-259.917 188.447,-262.675"/>
</g>
<!-- 7&#45;&gt;4 -->
<g id="edge6" class="edge"><title>7&#45;&gt;4</title>
<path fill="none" stroke="grey" stroke-width="2" d="M309.806,-287.876C289.482,-278.392 264.029,-266.513 242.398,-256.419"/>
<polygon fill="grey" stroke="grey" stroke-width="2" points="243.617,-253.126 233.075,-252.068 240.657,-259.469 243.617,-253.126"/>
</g>
</g>
</svg>
