<?xml version="1.0" encoding="UTF-8" standalone="no"?>
<!DOCTYPE svg PUBLIC "-//W3C//DTD SVG 1.1//EN"
 "http://www.w3.org/Graphics/SVG/1.1/DTD/svg11.dtd">
<!-- Generated by graphviz version 2.38.0 (20140413.2041)
 -->
<!-- Title: snakemake_dag Pages: 1 -->
<svg width="328pt" height="260pt"
 viewBox="0.00 0.00 328.08 260.00" xmlns="http://www.w3.org/2000/svg" xmlns:xlink="http://www.w3.org/1999/xlink">
<g id="graph0" class="graph" transform="scale(1 1) rotate(0) translate(4 256)">
<title>snakemake_dag</title>
<polygon fill="white" stroke="none" points="-4,4 -4,-256 324.081,-256 324.081,4 -4,4"/>
<!-- 0 -->
<g id="node1" class="node"><title>0</title>
<path fill="none" stroke="#d8bc56" stroke-width="2" d="M172.034,-36C172.034,-36 142.034,-36 142.034,-36 136.034,-36 130.034,-30 130.034,-24 130.034,-24 130.034,-12 130.034,-12 130.034,-6 136.034,-0 142.034,-0 142.034,-0 172.034,-0 172.034,-0 178.034,-0 184.034,-6 184.034,-12 184.034,-12 184.034,-24 184.034,-24 184.034,-30 178.034,-36 172.034,-36"/>
<text text-anchor="middle" x="157.034" y="-15" font-family="sans" font-size="10.00">all</text>
</g>
<!-- 1 -->
<g id="node2" class="node"><title>1</title>
<path fill="none" stroke="#56c1d8" stroke-width="2" d="M200.64,-108C200.64,-108 113.428,-108 113.428,-108 107.428,-108 101.428,-102 101.428,-96 101.428,-96 101.428,-84 101.428,-84 101.428,-78 107.428,-72 113.428,-72 113.428,-72 200.64,-72 200.64,-72 206.64,-72 212.64,-78 212.64,-84 212.64,-84 212.64,-96 212.64,-96 212.64,-102 206.64,-108 200.64,-108"/>
<text text-anchor="middle" x="157.034" y="-87" font-family="sans" font-size="10.00">run_MotEvo_analysis</text>
</g>
<!-- 1&#45;&gt;0 -->
<g id="edge1" class="edge"><title>1&#45;&gt;0</title>
<path fill="none" stroke="grey" stroke-width="2" d="M157.034,-71.6966C157.034,-63.9827 157.034,-54.7125 157.034,-46.1124"/>
<polygon fill="grey" stroke="grey" stroke-width="2" points="160.534,-46.1043 157.034,-36.1043 153.534,-46.1044 160.534,-46.1043"/>
</g>
<!-- 2 -->
<g id="node3" class="node"><title>2</title>
<path fill="none" stroke="#56d88a" stroke-width="2" d="M134.103,-180C134.103,-180 11.9658,-180 11.9658,-180 5.9658,-180 -0.0341957,-174 -0.0341957,-168 -0.0341957,-168 -0.0341957,-156 -0.0341957,-156 -0.0341957,-150 5.9658,-144 11.9658,-144 11.9658,-144 134.103,-144 134.103,-144 140.103,-144 146.103,-150 146.103,-156 146.103,-156 146.103,-168 146.103,-168 146.103,-174 140.103,-180 134.103,-180"/>
<text text-anchor="middle" x="73.0342" y="-159" font-family="sans" font-size="10.00">prepare_MotEvo_parameters</text>
</g>
<!-- 2&#45;&gt;1 -->
<g id="edge3" class="edge"><title>2&#45;&gt;1</title>
<path fill="none" stroke="grey" stroke-width="2" d="M93.7982,-143.697C104.276,-134.965 117.146,-124.24 128.534,-114.75"/>
<polygon fill="grey" stroke="grey" stroke-width="2" points="131.067,-117.195 136.509,-108.104 126.586,-111.817 131.067,-117.195"/>
</g>
<!-- 3 -->
<g id="node4" class="node"><title>3</title>
<path fill="none" stroke="#88d856" stroke-width="2" d="M308.127,-180C308.127,-180 175.941,-180 175.941,-180 169.941,-180 163.941,-174 163.941,-168 163.941,-168 163.941,-156 163.941,-156 163.941,-150 169.941,-144 175.941,-144 175.941,-144 308.127,-144 308.127,-144 314.127,-144 320.127,-150 320.127,-156 320.127,-156 320.127,-168 320.127,-168 320.127,-174 314.127,-180 308.127,-180"/>
<text text-anchor="middle" x="242.034" y="-159" font-family="sans" font-size="10.00">prepare_sequence_for_MotEvo</text>
</g>
<!-- 3&#45;&gt;1 -->
<g id="edge2" class="edge"><title>3&#45;&gt;1</title>
<path fill="none" stroke="grey" stroke-width="2" d="M221.023,-143.697C210.318,-134.881 197.145,-124.032 185.539,-114.474"/>
<polygon fill="grey" stroke="grey" stroke-width="2" points="187.748,-111.76 177.804,-108.104 183.298,-117.163 187.748,-111.76"/>
</g>
<!-- 4 -->
<g id="node5" class="node"><title>4</title>
<path fill="none" stroke="#d85656" stroke-width="2" d="M206.248,-252C206.248,-252 107.82,-252 107.82,-252 101.82,-252 95.82,-246 95.82,-240 95.82,-240 95.82,-228 95.82,-228 95.82,-222 101.82,-216 107.82,-216 107.82,-216 206.248,-216 206.248,-216 212.248,-216 218.248,-222 218.248,-228 218.248,-228 218.248,-240 218.248,-240 218.248,-246 212.248,-252 206.248,-252"/>
<text text-anchor="middle" x="157.034" y="-231" font-family="sans" font-size="10.00">create_results_directory</text>
</g>
<!-- 4&#45;&gt;2 -->
<g id="edge4" class="edge"><title>4&#45;&gt;2</title>
<path fill="none" stroke="grey" stroke-width="2" d="M136.27,-215.697C125.793,-206.965 112.923,-196.24 101.535,-186.75"/>
<polygon fill="grey" stroke="grey" stroke-width="2" points="103.482,-183.817 93.5594,-180.104 99.001,-189.195 103.482,-183.817"/>
</g>
<!-- 4&#45;&gt;3 -->
<g id="edge5" class="edge"><title>4&#45;&gt;3</title>
<path fill="none" stroke="grey" stroke-width="2" d="M178.045,-215.697C188.75,-206.881 201.924,-196.032 213.53,-186.474"/>
<polygon fill="grey" stroke="grey" stroke-width="2" points="215.77,-189.163 221.265,-180.104 211.32,-183.76 215.77,-189.163"/>
</g>
</g>
</svg>
